<svg
  width="54"
  height="57"
  viewBox="0 0 54 57"
  fill="none"
  xmlns="http://www.w3.org/2000/svg"
>
<rect width="53.5899" height="56.5949" fill="#FFC700" />
<path
    d="M36.6925 16.905H33.7875V15.4525C33.7875 15.0673 33.6345 14.6978 33.3621 14.4254C33.0897 14.153 32.7202 14 32.335 14C31.9498 14 31.5803 14.153 31.3079 14.4254C31.0355 14.6978 30.8825 15.0673 30.8825 15.4525V16.905H22.1675V15.4525C22.1675 15.0673 22.0145 14.6978 21.7421 14.4254C21.4697 14.153 21.1002 14 20.715 14C20.3298 14 19.9603 14.153 19.6879 14.4254C19.4155 14.6978 19.2625 15.0673 19.2625 15.4525V16.905H16.3575C15.2018 16.905 14.0935 17.3641 13.2763 18.1813C12.4591 18.9985 12 20.1068 12 21.2625V38.6925C12 39.8482 12.4591 40.9565 13.2763 41.7737C14.0935 42.5909 15.2018 43.05 16.3575 43.05H36.6925C37.8482 43.05 38.9565 42.5909 39.7737 41.7737C40.5909 40.9565 41.05 39.8482 41.05 38.6925V21.2625C41.05 20.1068 40.5909 18.9985 39.7737 18.1813C38.9565 17.3641 37.8482 16.905 36.6925 16.905ZM38.145 38.6925C38.145 39.0777 37.992 39.4472 37.7196 39.7196C37.4472 39.992 37.0777 40.145 36.6925 40.145H16.3575C15.9723 40.145 15.6028 39.992 15.3304 39.7196C15.058 39.4472 14.905 39.0777 14.905 38.6925V28.525H38.145V38.6925ZM38.145 25.62H14.905V21.2625C14.905 20.8773 15.058 20.5078 15.3304 20.2354C15.6028 19.963 15.9723 19.81 16.3575 19.81H19.2625V21.2625C19.2625 21.6477 19.4155 22.0172 19.6879 22.2896C19.9603 22.562 20.3298 22.715 20.715 22.715C21.1002 22.715 21.4697 22.562 21.7421 22.2896C22.0145 22.0172 22.1675 21.6477 22.1675 21.2625V19.81H30.8825V21.2625C30.8825 21.6477 31.0355 22.0172 31.3079 22.2896C31.5803 22.562 31.9498 22.715 32.335 22.715C32.7202 22.715 33.0897 22.562 33.3621 22.2896C33.6345 22.0172 33.7875 21.6477 33.7875 21.2625V19.81H36.6925C37.0777 19.81 37.4472 19.963 37.7196 20.2354C37.992 20.5078 38.145 20.8773 38.145 21.2625V25.62Z"
    fill="#0065AE"
  />
</svg>
