<svg
  width="107"
  height="113"
  viewBox="0 0 107 113"
  fill="none"
  xmlns="http://www.w3.org/2000/svg"
>
<rect width="107" height="113" fill="#FFC700" />
<path
    d="M54.0002 30.3333C39.2962 30.3333 27.3335 42.296 27.3335 57C27.3335 71.704 39.2962 83.6667 54.0002 83.6667C68.7042 83.6667 80.6668 71.704 80.6668 57C80.6668 42.296 68.7042 30.3333 54.0002 30.3333ZM54.0002 78.3333C42.2375 78.3333 32.6668 68.7627 32.6668 57C32.6668 45.2373 42.2375 35.6667 54.0002 35.6667C65.7628 35.6667 75.3335 45.2373 75.3335 57C75.3335 68.7627 65.7628 78.3333 54.0002 78.3333Z"
    fill="#0065AE"
  />
<path
    d="M56.6668 43.6667H51.3335V59.6667H67.3335V54.3333H56.6668V43.6667Z"
    fill="#0065AE"
  />
</svg>
