<svg
  width="107"
  height="113"
  viewBox="0 0 107 113"
  fill="none"
  xmlns="http://www.w3.org/2000/svg"
>
<rect width="107" height="113" fill="#FFC700" />
<path
    d="M54 26.6667C60.3652 26.6667 66.4697 29.1952 70.9706 33.6961C75.4714 38.197 78 44.3015 78 50.6667C78 60.6027 70.4267 71.0133 55.6 82.1333C55.1384 82.4795 54.577 82.6667 54 82.6667C53.423 82.6667 52.8616 82.4795 52.4 82.1333C37.5733 71.0133 30 60.6027 30 50.6667C30 44.3015 32.5286 38.197 37.0294 33.6961C41.5303 29.1952 47.6348 26.6667 54 26.6667ZM54 32C49.0493 32 44.3014 33.9667 40.8007 37.4673C37.3 40.968 35.3333 45.716 35.3333 50.6667C35.3333 57.8933 40.9813 66.2293 52.528 75.4827L54 76.6453L55.472 75.4827C67.0187 66.2293 72.6667 57.8933 72.6667 50.6667C72.6667 45.716 70.7 40.968 67.1993 37.4673C63.6986 33.9667 58.9507 32 54 32ZM54 45.3333C55.4145 45.3333 56.771 45.8952 57.7712 46.8954C58.7714 47.8956 59.3333 49.2522 59.3333 50.6667C59.3333 52.0812 58.7714 53.4377 57.7712 54.4379C56.771 55.4381 55.4145 56 54 56C52.5855 56 51.229 55.4381 50.2288 54.4379C49.2286 53.4377 48.6667 52.0812 48.6667 50.6667C48.6667 49.2522 49.2286 47.8956 50.2288 46.8954C51.229 45.8952 52.5855 45.3333 54 45.3333Z"
    fill="#0065AE"
  />
</svg>
