<svg
  width="226"
  height="248"
  viewBox="0 0 226 248"
  fill="none"
  xmlns="http://www.w3.org/2000/svg"
>
<rect width="226" height="124" fill="#ECECEC" />
<rect y="124" width="226" height="124" fill="#FFC700" />
<path
    d="M39.4517 60.8182H35.6037L29.071 65.0881V68.8722L35.3352 64.7812H35.4886V87H39.4517V60.8182ZM54.6194 87H58.5697V75.5838H71.6222V87H75.5853V60.8182H71.6222V72.196H58.5697V60.8182H54.6194V87ZM88.4026 87.3963C93.9381 87.3963 97.556 83.3438 97.556 77.2713C97.556 71.1605 93.9381 67.108 88.4026 67.108C82.8671 67.108 79.2492 71.1605 79.2492 77.2713C79.2492 83.3438 82.8671 87.3963 88.4026 87.3963ZM88.4154 84.1875C84.7975 84.1875 83.11 81.0298 83.11 77.2585C83.11 73.5 84.7975 70.304 88.4154 70.304C92.0077 70.304 93.6952 73.5 93.6952 77.2585C93.6952 81.0298 92.0077 84.1875 88.4154 84.1875ZM113.362 78.8565C113.374 82.1932 110.894 83.7784 108.747 83.7784C106.382 83.7784 104.745 82.0653 104.745 79.3935V67.3636H100.923V79.8537C100.923 84.7244 103.595 87.2557 107.366 87.2557C110.319 87.2557 112.326 85.696 113.234 83.5994H113.438V87H117.197V67.3636H113.362V78.8565ZM121.433 87H125.255V75.0085C125.255 72.4389 127.237 70.5852 129.947 70.5852C130.74 70.5852 131.635 70.7259 131.941 70.8153V67.1591C131.558 67.108 130.804 67.0696 130.318 67.0696C128.017 67.0696 126.048 68.3736 125.332 70.483H125.127V67.3636H121.433V87Z"
    fill="black"
  />
<path
    d="M45.5 214.818H49.7727L49.7955 209.705C59.4091 209 64.9091 203.5 64.9091 196.136C64.9091 187.75 57.4318 184.5 51.5227 183.045L49.8636 182.614L49.9091 168.023C54.1591 168.591 57.0682 170.955 57.5 174.682H64.2727C64.0909 167.75 58.3636 162.568 49.9318 161.886L49.9545 156.636H45.6818L45.6591 161.932C37.5 162.75 31.5227 167.841 31.5227 175.182C31.5227 181.659 36.1591 185.455 43.6364 187.477L45.5909 188L45.5455 203.477C41.1136 202.932 37.6818 200.523 37.3182 196.136H30.2727C30.7045 203.977 36.3636 209.023 45.5227 209.705L45.5 214.818ZM49.8182 203.477L49.8636 189.182C54.4773 190.455 57.9545 192.136 57.9545 196.068C57.9545 200.045 54.6364 202.841 49.8182 203.477ZM45.6136 181.477C42.2273 180.477 38.5 178.682 38.5227 174.773C38.5227 171.364 41.2273 168.705 45.6364 168.045L45.6136 181.477ZM86.4284 209.636C95.792 209.636 102.474 203.023 102.451 193.955C102.474 184.955 96.2011 178.409 87.7239 178.409C84.2693 178.409 81.0648 179.727 79.2466 181.5H78.9739L80.4511 168.477H100.201V162.455H74.6102L71.9966 185.909L78.4284 186.864C80.1784 185.295 83.3148 184.227 86.133 184.227C91.6557 184.273 95.6557 188.409 95.6557 194.091C95.6557 199.682 91.7693 203.727 86.4284 203.727C81.9284 203.727 78.3602 200.864 77.9966 196.864H71.1784C71.4511 204.273 77.883 209.636 86.4284 209.636ZM125.357 209.773C136.107 209.773 142.402 201 142.402 185.75C142.402 170.614 136.016 161.818 125.357 161.818C114.675 161.818 108.311 170.591 108.289 185.75C108.289 200.977 114.584 209.75 125.357 209.773ZM125.357 203.705C119.061 203.705 115.266 197.386 115.266 185.75C115.289 174.159 119.084 167.773 125.357 167.773C131.607 167.773 135.425 174.159 135.425 185.75C135.425 197.386 131.63 203.705 125.357 203.705Z"
    fill="black"
  />
<path
    d="M36.4261 35C36.0483 32.9119 34.3778 31.679 32.3295 31.679C29.7244 31.679 27.8352 33.6875 27.8352 36.9091C27.8352 40.1307 29.7244 42.1392 32.3295 42.1392C34.3778 42.1392 36.0483 40.9062 36.4261 38.8182H35.1932C34.8949 40.2301 33.6818 40.9858 32.3295 40.9858C30.4801 40.9858 29.0284 39.554 29.0284 36.9091C29.0284 34.2642 30.4801 32.8324 32.3295 32.8324C33.6818 32.8324 34.8949 33.5881 35.1932 35H36.4261ZM38.9427 31.8182H37.7694V42H38.9427V31.8182ZM42.8488 42.179C44.1812 42.179 44.8772 41.4631 45.1159 40.9659H45.1755V42H46.3488V36.9688C46.3488 34.5426 44.4994 34.2642 43.525 34.2642C42.3716 34.2642 41.0591 34.6619 40.4625 36.054L41.5761 36.4517C41.8346 35.8949 42.4461 35.2983 43.5647 35.2983C44.6436 35.2983 45.1755 35.87 45.1755 36.8494V36.8892C45.1755 37.456 44.5988 37.4062 43.2068 37.5852C41.7899 37.7692 40.2437 38.0824 40.2437 39.8324C40.2437 41.3239 41.3971 42.179 42.8488 42.179ZM43.0278 41.125C42.0932 41.125 41.417 40.7074 41.417 39.892C41.417 38.9972 42.2324 38.7188 43.1471 38.5994C43.6443 38.5398 44.9767 38.4006 45.1755 38.1619V39.2358C45.1755 40.1903 44.4199 41.125 43.0278 41.125ZM53.4094 36.0739C53.0415 34.9901 52.2163 34.2642 50.7049 34.2642C49.0941 34.2642 47.9009 35.179 47.9009 36.4716C47.9009 37.5256 48.5273 38.2315 49.9293 38.5597L51.2021 38.858C51.9726 39.0369 52.3356 39.4048 52.3356 39.9318C52.3356 40.5881 51.6396 41.125 50.5458 41.125C49.5863 41.125 48.9847 40.7124 48.7759 39.892L47.6623 40.1705C47.9357 41.468 49.0046 42.1591 50.5657 42.1591C52.3405 42.1591 53.5486 41.1896 53.5486 39.8722C53.5486 38.8082 52.8825 38.1371 51.5202 37.804L50.3867 37.5256C49.4819 37.3018 49.0742 36.9986 49.0742 36.4119C49.0742 35.7557 49.7702 35.2784 50.7049 35.2784C51.729 35.2784 52.1516 35.8452 52.3555 36.3722L53.4094 36.0739ZM60.2339 36.0739C59.866 34.9901 59.0407 34.2642 57.5293 34.2642C55.9186 34.2642 54.7254 35.179 54.7254 36.4716C54.7254 37.5256 55.3518 38.2315 56.7538 38.5597L58.0265 38.858C58.7971 39.0369 59.16 39.4048 59.16 39.9318C59.16 40.5881 58.464 41.125 57.3703 41.125C56.4107 41.125 55.8092 40.7124 55.6004 39.892L54.4867 40.1705C54.7602 41.468 55.8291 42.1591 57.3901 42.1591C59.165 42.1591 60.3731 41.1896 60.3731 39.8722C60.3731 38.8082 59.7069 38.1371 58.3447 37.804L57.2112 37.5256C56.3063 37.3018 55.8987 36.9986 55.8987 36.4119C55.8987 35.7557 56.5947 35.2784 57.5293 35.2784C58.5535 35.2784 58.9761 35.8452 59.1799 36.3722L60.2339 36.0739ZM68.3979 42C71.5002 42 73.2502 40.071 73.2502 36.8892C73.2502 33.7273 71.5002 31.8182 68.5371 31.8182H65.2558V42H68.3979ZM66.4888 40.9062V32.9119H68.4576C70.8439 32.9119 72.057 34.4233 72.057 36.8892C72.057 39.375 70.8439 40.9062 68.3183 40.9062H66.4888ZM79.4818 38.8778C79.4818 40.3097 78.388 40.9659 77.513 40.9659C76.5386 40.9659 75.8425 40.25 75.8425 39.1364V34.3636H74.6693V39.2159C74.6693 41.1648 75.7033 42.0994 77.1352 42.0994C78.2886 42.0994 79.0443 41.483 79.4022 40.7074H79.4818V42H80.655V34.3636H79.4818V38.8778ZM82.314 42H83.4873V37.1676C83.4873 36.1335 84.3027 35.3778 85.4163 35.3778C85.7295 35.3778 86.0527 35.4375 86.1322 35.4574V34.2642C85.998 34.2543 85.6897 34.2443 85.5157 34.2443C84.601 34.2443 83.8055 34.7614 83.5271 35.517H83.4475V34.3636H82.314V42ZM89.2802 42.179C90.6126 42.179 91.3086 41.4631 91.5472 40.9659H91.6069V42H92.7802V36.9688C92.7802 34.5426 90.9307 34.2642 89.9563 34.2642C88.8029 34.2642 87.4904 34.6619 86.8938 36.054L88.0074 36.4517C88.266 35.8949 88.8775 35.2983 89.9961 35.2983C91.0749 35.2983 91.6069 35.87 91.6069 36.8494V36.8892C91.6069 37.456 91.0302 37.4062 89.6381 37.5852C88.2212 37.7692 86.675 38.0824 86.675 39.8324C86.675 41.3239 87.8285 42.179 89.2802 42.179ZM89.4591 41.125C88.5245 41.125 87.8483 40.7074 87.8483 39.892C87.8483 38.9972 88.6637 38.7188 89.5785 38.5994C90.0756 38.5398 91.408 38.4006 91.6069 38.1619V39.2358C91.6069 40.1903 90.8512 41.125 89.4591 41.125ZM97.7527 34.3636H96.122V32.5341H94.9487V34.3636H93.7953V35.358H94.9487V40.1307C94.9487 41.4631 96.0226 42.0994 97.0169 42.0994C97.4544 42.0994 97.7328 42.0199 97.8919 41.9602L97.6533 40.9062C97.5538 40.9261 97.3947 40.9659 97.1362 40.9659C96.6192 40.9659 96.122 40.8068 96.122 39.8125V35.358H97.7527V34.3636ZM99.0276 42H100.201V34.3636H99.0276V42ZM99.6242 33.0909C100.082 33.0909 100.459 32.733 100.459 32.2955C100.459 31.858 100.082 31.5 99.6242 31.5C99.1668 31.5 98.789 31.858 98.789 32.2955C98.789 32.733 99.1668 33.0909 99.6242 33.0909ZM104.962 42.1591C107.03 42.1591 108.422 40.5881 108.422 38.2216C108.422 35.8352 107.03 34.2642 104.962 34.2642C102.894 34.2642 101.502 35.8352 101.502 38.2216C101.502 40.5881 102.894 42.1591 104.962 42.1591ZM104.962 41.1051C103.391 41.1051 102.675 39.7528 102.675 38.2216C102.675 36.6903 103.391 35.3182 104.962 35.3182C106.533 35.3182 107.249 36.6903 107.249 38.2216C107.249 39.7528 106.533 41.1051 104.962 41.1051ZM110.897 37.4062C110.897 36.0739 111.722 35.3182 112.846 35.3182C113.934 35.3182 114.596 36.0291 114.596 37.2273V42H115.769V37.1477C115.769 35.1989 114.73 34.2642 113.184 34.2642C112.03 34.2642 111.314 34.7812 110.956 35.5568H110.857V34.3636H109.723V42H110.897V37.4062Z"
    fill="black"
  />
</svg>
