<svg
  width="493"
  height="113"
  viewBox="0 0 493 113"
  fill="none"
  xmlns="http://www.w3.org/2000/svg"
>
<rect x="118" width="375" height="113" fill="#ECECEC" />
<path
    d="M159.193 61H160.466C160.088 59.0312 158.438 57.679 156.29 57.679C153.68 57.679 151.835 59.6875 151.835 62.9091C151.835 66.1307 153.665 68.1392 156.369 68.1392C158.795 68.1392 160.526 66.5234 160.526 64.0028V62.9091H156.648V64.0028H159.332C159.298 65.8324 158.094 66.9858 156.369 66.9858C154.48 66.9858 153.028 65.554 153.028 62.9091C153.028 60.2642 154.48 58.8324 156.29 58.8324C157.761 58.8324 158.761 59.6626 159.193 61ZM165.19 68.1591C166.741 68.1591 167.875 67.3835 168.232 66.2301L167.099 65.9119C166.801 66.7074 166.11 67.1051 165.19 67.1051C163.813 67.1051 162.863 66.2152 162.808 64.5795H168.352V64.0824C168.352 61.2386 166.661 60.2642 165.071 60.2642C163.002 60.2642 161.63 61.8949 161.63 64.2415C161.63 66.5881 162.982 68.1591 165.19 68.1591ZM162.808 63.5653C162.888 62.3771 163.728 61.3182 165.071 61.3182C166.343 61.3182 167.159 62.2727 167.159 63.5653H162.808ZM172.968 60.3636H171.337V58.5341H170.164V60.3636H169.01V61.358H170.164V66.1307C170.164 67.4631 171.238 68.0994 172.232 68.0994C172.669 68.0994 172.948 68.0199 173.107 67.9602L172.868 66.9062C172.769 66.9261 172.61 66.9659 172.351 66.9659C171.834 66.9659 171.337 66.8068 171.337 65.8125V61.358H172.968V60.3636ZM181.11 68.1392C183.084 68.1392 184.551 66.9013 184.551 65.2358C184.551 63.9432 183.785 63.0036 182.503 62.7898V62.7102C183.532 62.397 184.173 61.5518 184.173 60.4034C184.173 58.9616 183.034 57.679 181.15 57.679C179.39 57.679 177.929 58.7628 177.869 60.3636H179.062C179.107 59.3494 180.071 58.7528 181.13 58.7528C182.254 58.7528 182.98 59.4339 182.98 60.4631C182.98 61.5369 182.14 62.233 180.932 62.233H180.116V63.3267H180.932C182.478 63.3267 183.338 64.1122 183.338 65.2358C183.338 66.3146 182.398 67.0455 181.091 67.0455C179.912 67.0455 178.978 66.4389 178.903 65.4545H177.65C177.725 67.0554 179.137 68.1392 181.11 68.1392ZM194.971 62.0739C194.603 60.9901 193.778 60.2642 192.266 60.2642C190.655 60.2642 189.462 61.179 189.462 62.4716C189.462 63.5256 190.089 64.2315 191.491 64.5597L192.763 64.858C193.534 65.0369 193.897 65.4048 193.897 65.9318C193.897 66.5881 193.201 67.125 192.107 67.125C191.148 67.125 190.546 66.7124 190.337 65.892L189.224 66.1705C189.497 67.468 190.566 68.1591 192.127 68.1591C193.902 68.1591 195.11 67.1896 195.11 65.8722C195.11 64.8082 194.444 64.1371 193.081 63.804L191.948 63.5256C191.043 63.3018 190.635 62.9986 190.635 62.4119C190.635 61.7557 191.331 61.2784 192.266 61.2784C193.29 61.2784 193.713 61.8452 193.917 62.3722L194.971 62.0739ZM197.559 57.8182H196.386V68H197.559V57.8182ZM202.321 68.1591C204.389 68.1591 205.781 66.5881 205.781 64.2216C205.781 61.8352 204.389 60.2642 202.321 60.2642C200.252 60.2642 198.86 61.8352 198.86 64.2216C198.86 66.5881 200.252 68.1591 202.321 68.1591ZM202.321 67.1051C200.75 67.1051 200.034 65.7528 200.034 64.2216C200.034 62.6903 200.75 61.3182 202.321 61.3182C203.892 61.3182 204.608 62.6903 204.608 64.2216C204.608 65.7528 203.892 67.1051 202.321 67.1051ZM210.403 60.3636H208.772V58.5341H207.599V60.3636H206.445V61.358H207.599V66.1307C207.599 67.4631 208.673 68.0994 209.667 68.0994C210.105 68.0994 210.383 68.0199 210.542 67.9602L210.303 66.9062C210.204 66.9261 210.045 66.9659 209.786 66.9659C209.269 66.9659 208.772 66.8068 208.772 65.8125V61.358H210.403V60.3636ZM216.95 62.0739C216.582 60.9901 215.757 60.2642 214.246 60.2642C212.635 60.2642 211.442 61.179 211.442 62.4716C211.442 63.5256 212.068 64.2315 213.47 64.5597L214.743 64.858C215.513 65.0369 215.876 65.4048 215.876 65.9318C215.876 66.5881 215.18 67.125 214.087 67.125C213.127 67.125 212.525 66.7124 212.317 65.892L211.203 66.1705C211.476 67.468 212.545 68.1591 214.106 68.1591C215.881 68.1591 217.089 67.1896 217.089 65.8722C217.089 64.8082 216.423 64.1371 215.061 63.804L213.927 63.5256C213.023 63.3018 212.615 62.9986 212.615 62.4119C212.615 61.7557 213.311 61.2784 214.246 61.2784C215.27 61.2784 215.692 61.8452 215.896 62.3722L216.95 62.0739ZM224.915 68.1591C226.983 68.1591 228.376 66.5881 228.376 64.2216C228.376 61.8352 226.983 60.2642 224.915 60.2642C222.847 60.2642 221.455 61.8352 221.455 64.2216C221.455 66.5881 222.847 68.1591 224.915 68.1591ZM224.915 67.1051C223.344 67.1051 222.628 65.7528 222.628 64.2216C222.628 62.6903 223.344 61.3182 224.915 61.3182C226.486 61.3182 227.202 62.6903 227.202 64.2216C227.202 65.7528 226.486 67.1051 224.915 67.1051ZM233.077 60.3636H231.367V59.5881C231.367 58.8324 231.685 58.4347 232.461 58.4347C232.799 58.4347 232.998 58.5142 233.117 58.554L233.455 57.5398C233.276 57.4602 232.918 57.3409 232.341 57.3409C231.248 57.3409 230.194 57.9972 230.194 59.3097V60.3636H228.961V61.358H230.194V68H231.367V61.358H233.077V60.3636ZM240.562 68.1591C242.034 68.1591 242.531 67.2443 242.79 66.8267H242.929V68H244.062V57.8182H242.889V61.5767H242.79C242.531 61.179 242.074 60.2642 240.582 60.2642C238.653 60.2642 237.321 61.7955 237.321 64.2017C237.321 66.6278 238.653 68.1591 240.562 68.1591ZM240.722 67.1051C239.25 67.1051 238.494 65.8125 238.494 64.1818C238.494 62.571 239.23 61.3182 240.722 61.3182C242.153 61.3182 242.909 62.4716 242.909 64.1818C242.909 65.9119 242.133 67.1051 240.722 67.1051ZM245.884 68H247.058V60.3636H245.884V68ZM246.481 59.0909C246.938 59.0909 247.316 58.733 247.316 58.2955C247.316 57.858 246.938 57.5 246.481 57.5C246.023 57.5 245.646 57.858 245.646 58.2955C245.646 58.733 246.023 59.0909 246.481 59.0909ZM252.117 60.3636H250.407V59.5881C250.407 58.8324 250.725 58.4347 251.501 58.4347C251.839 58.4347 252.038 58.5142 252.157 58.554L252.495 57.5398C252.316 57.4602 251.958 57.3409 251.381 57.3409C250.288 57.3409 249.234 57.9972 249.234 59.3097V60.3636H248.001V61.358H249.234V68H250.407V61.358H252.117V60.3636ZM256.672 60.3636H254.962V59.5881C254.962 58.8324 255.28 58.4347 256.056 58.4347C256.394 58.4347 256.592 58.5142 256.712 58.554L257.05 57.5398C256.871 57.4602 256.513 57.3409 255.936 57.3409C254.842 57.3409 253.788 57.9972 253.788 59.3097V60.3636H252.556V61.358H253.788V68H254.962V61.358H256.672V60.3636ZM260.714 68.1591C262.265 68.1591 263.398 67.3835 263.756 66.2301L262.623 65.9119C262.324 66.7074 261.633 67.1051 260.714 67.1051C259.336 67.1051 258.387 66.2152 258.332 64.5795H263.876V64.0824C263.876 61.2386 262.185 60.2642 260.594 60.2642C258.526 60.2642 257.154 61.8949 257.154 64.2415C257.154 66.5881 258.506 68.1591 260.714 68.1591ZM258.332 63.5653C258.412 62.3771 259.252 61.3182 260.594 61.3182C261.867 61.3182 262.682 62.2727 262.682 63.5653H258.332ZM265.17 68H266.344V63.1676C266.344 62.1335 267.159 61.3778 268.273 61.3778C268.586 61.3778 268.909 61.4375 268.989 61.4574V60.2642C268.854 60.2543 268.546 60.2443 268.372 60.2443C267.457 60.2443 266.662 60.7614 266.383 61.517H266.304V60.3636H265.17V68ZM272.859 68.1591C274.41 68.1591 275.543 67.3835 275.901 66.2301L274.768 65.9119C274.469 66.7074 273.778 67.1051 272.859 67.1051C271.481 67.1051 270.532 66.2152 270.477 64.5795H276.021V64.0824C276.021 61.2386 274.33 60.2642 272.739 60.2642C270.671 60.2642 269.299 61.8949 269.299 64.2415C269.299 66.5881 270.651 68.1591 272.859 68.1591ZM270.477 63.5653C270.557 62.3771 271.397 61.3182 272.739 61.3182C274.012 61.3182 274.827 62.2727 274.827 63.5653H270.477ZM278.489 63.4062C278.489 62.0739 279.314 61.3182 280.438 61.3182C281.526 61.3182 282.188 62.0291 282.188 63.2273V68H283.361V63.1477C283.361 61.1989 282.322 60.2642 280.776 60.2642C279.622 60.2642 278.906 60.7812 278.548 61.5568H278.449V60.3636H277.315V68H278.489V63.4062ZM288.336 60.3636H286.705V58.5341H285.532V60.3636H284.378V61.358H285.532V66.1307C285.532 67.4631 286.606 68.0994 287.6 68.0994C288.038 68.0994 288.316 68.0199 288.475 67.9602L288.236 66.9062C288.137 66.9261 287.978 66.9659 287.719 66.9659C287.202 66.9659 286.705 66.8068 286.705 65.8125V61.358H288.336V60.3636ZM295.942 68.1591C297.413 68.1591 297.911 67.2443 298.169 66.8267H298.308V68H299.442V57.8182H298.268V61.5767H298.169C297.911 61.179 297.453 60.2642 295.962 60.2642C294.033 60.2642 292.7 61.7955 292.7 64.2017C292.7 66.6278 294.033 68.1591 295.942 68.1591ZM296.101 67.1051C294.629 67.1051 293.874 65.8125 293.874 64.1818C293.874 62.571 294.609 61.3182 296.101 61.3182C297.533 61.3182 298.288 62.4716 298.288 64.1818C298.288 65.9119 297.513 67.1051 296.101 67.1051ZM303.511 68.179C304.843 68.179 305.539 67.4631 305.778 66.9659H305.837V68H307.011V62.9688C307.011 60.5426 305.161 60.2642 304.187 60.2642C303.033 60.2642 301.721 60.6619 301.124 62.054L302.238 62.4517C302.497 61.8949 303.108 61.2983 304.227 61.2983C305.305 61.2983 305.837 61.87 305.837 62.8494V62.8892C305.837 63.456 305.261 63.4062 303.869 63.5852C302.452 63.7692 300.906 64.0824 300.906 65.8324C300.906 67.3239 302.059 68.179 303.511 68.179ZM303.69 67.125C302.755 67.125 302.079 66.7074 302.079 65.892C302.079 64.9972 302.894 64.7188 303.809 64.5994C304.306 64.5398 305.639 64.4006 305.837 64.1619V65.2358C305.837 66.1903 305.082 67.125 303.69 67.125ZM311.983 60.3636H310.353V58.5341H309.179V60.3636H308.026V61.358H309.179V66.1307C309.179 67.4631 310.253 68.0994 311.247 68.0994C311.685 68.0994 311.963 68.0199 312.122 67.9602L311.884 66.9062C311.784 66.9261 311.625 66.9659 311.367 66.9659C310.85 66.9659 310.353 66.8068 310.353 65.8125V61.358H311.983V60.3636ZM316.378 68.1591C317.929 68.1591 319.062 67.3835 319.42 66.2301L318.287 65.9119C317.989 66.7074 317.298 67.1051 316.378 67.1051C315.001 67.1051 314.051 66.2152 313.996 64.5795H319.54V64.0824C319.54 61.2386 317.849 60.2642 316.259 60.2642C314.19 60.2642 312.818 61.8949 312.818 64.2415C312.818 66.5881 314.17 68.1591 316.378 68.1591ZM313.996 63.5653C314.076 62.3771 314.916 61.3182 316.259 61.3182C317.531 61.3182 318.347 62.2727 318.347 63.5653H313.996ZM326.529 68.179C327.862 68.179 328.558 67.4631 328.796 66.9659H328.856V68H330.029V62.9688C330.029 60.5426 328.18 60.2642 327.205 60.2642C326.052 60.2642 324.739 60.6619 324.143 62.054L325.257 62.4517C325.515 61.8949 326.127 61.2983 327.245 61.2983C328.324 61.2983 328.856 61.87 328.856 62.8494V62.8892C328.856 63.456 328.279 63.4062 326.887 63.5852C325.47 63.7692 323.924 64.0824 323.924 65.8324C323.924 67.3239 325.078 68.179 326.529 68.179ZM326.708 67.125C325.774 67.125 325.097 66.7074 325.097 65.892C325.097 64.9972 325.913 64.7188 326.828 64.5994C327.325 64.5398 328.657 64.4006 328.856 64.1619V65.2358C328.856 66.1903 328.1 67.125 326.708 67.125ZM332.854 63.4062C332.854 62.0739 333.679 61.3182 334.803 61.3182C335.892 61.3182 336.553 62.0291 336.553 63.2273V68H337.726V63.1477C337.726 61.1989 336.687 60.2642 335.141 60.2642C333.988 60.2642 333.272 60.7812 332.914 61.5568H332.814V60.3636H331.681V68H332.854V63.4062ZM342.264 68.1591C343.735 68.1591 344.232 67.2443 344.491 66.8267H344.63V68H345.764V57.8182H344.59V61.5767H344.491C344.232 61.179 343.775 60.2642 342.284 60.2642C340.355 60.2642 339.022 61.7955 339.022 64.2017C339.022 66.6278 340.355 68.1591 342.264 68.1591ZM342.423 67.1051C340.951 67.1051 340.196 65.8125 340.196 64.1818C340.196 62.571 340.931 61.3182 342.423 61.3182C343.855 61.3182 344.61 62.4716 344.61 64.1818C344.61 65.9119 343.835 67.1051 342.423 67.1051ZM354.354 60.3636H352.723V58.5341H351.55V60.3636H350.397V61.358H351.55V66.1307C351.55 67.4631 352.624 68.0994 353.618 68.0994C354.056 68.0994 354.334 68.0199 354.493 67.9602L354.255 66.9062C354.155 66.9261 353.996 66.9659 353.738 66.9659C353.221 66.9659 352.723 66.8068 352.723 65.8125V61.358H354.354V60.3636ZM355.629 68H356.802V60.3636H355.629V68ZM356.226 59.0909C356.683 59.0909 357.061 58.733 357.061 58.2955C357.061 57.858 356.683 57.5 356.226 57.5C355.768 57.5 355.39 57.858 355.39 58.2955C355.39 58.733 355.768 59.0909 356.226 59.0909ZM358.461 68H359.635V63.2273C359.635 62.1087 360.45 61.3182 361.365 61.3182C362.255 61.3182 362.876 61.8999 362.876 62.7699V68H364.069V63.0284C364.069 62.044 364.686 61.3182 365.76 61.3182C366.595 61.3182 367.311 61.7607 367.311 62.8892V68H368.484V62.8892C368.484 61.0945 367.519 60.2642 366.157 60.2642C365.063 60.2642 364.263 60.7663 363.87 61.5568H363.791C363.413 60.7415 362.747 60.2642 361.742 60.2642C360.748 60.2642 360.012 60.7415 359.694 61.5568H359.595V60.3636H358.461V68ZM373.341 68.1591C374.892 68.1591 376.026 67.3835 376.383 66.2301L375.25 65.9119C374.952 66.7074 374.261 67.1051 373.341 67.1051C371.964 67.1051 371.014 66.2152 370.959 64.5795H376.503V64.0824C376.503 61.2386 374.812 60.2642 373.222 60.2642C371.153 60.2642 369.781 61.8949 369.781 64.2415C369.781 66.5881 371.133 68.1591 373.341 68.1591ZM370.959 63.5653C371.039 62.3771 371.879 61.3182 373.222 61.3182C374.494 61.3182 375.31 62.2727 375.31 63.5653H370.959ZM378.653 68.0795C379.145 68.0795 379.548 67.6768 379.548 67.1847C379.548 66.6925 379.145 66.2898 378.653 66.2898C378.161 66.2898 377.758 66.6925 377.758 67.1847C377.758 67.6768 378.161 68.0795 378.653 68.0795ZM152.233 91H158.199V89.9062H153.466V80.8182H152.233V91ZM162.661 91.1591C164.212 91.1591 165.345 90.3835 165.703 89.2301L164.57 88.9119C164.271 89.7074 163.58 90.1051 162.661 90.1051C161.283 90.1051 160.334 89.2152 160.279 87.5795H165.823V87.0824C165.823 84.2386 164.132 83.2642 162.541 83.2642C160.473 83.2642 159.101 84.8949 159.101 87.2415C159.101 89.5881 160.453 91.1591 162.661 91.1591ZM160.279 86.5653C160.359 85.3771 161.199 84.3182 162.541 84.3182C163.814 84.3182 164.629 85.2727 164.629 86.5653H160.279ZM169.364 91.179C170.697 91.179 171.393 90.4631 171.632 89.9659H171.691V91H172.864V85.9688C172.864 83.5426 171.015 83.2642 170.041 83.2642C168.887 83.2642 167.575 83.6619 166.978 85.054L168.092 85.4517C168.35 84.8949 168.962 84.2983 170.08 84.2983C171.159 84.2983 171.691 84.87 171.691 85.8494V85.8892C171.691 86.456 171.114 86.4062 169.722 86.5852C168.306 86.7692 166.759 87.0824 166.759 88.8324C166.759 90.3239 167.913 91.179 169.364 91.179ZM169.543 90.125C168.609 90.125 167.933 89.7074 167.933 88.892C167.933 87.9972 168.748 87.7188 169.663 87.5994C170.16 87.5398 171.492 87.4006 171.691 87.1619V88.2358C171.691 89.1903 170.935 90.125 169.543 90.125ZM174.516 91H175.689V86.1676C175.689 85.1335 176.505 84.3778 177.618 84.3778C177.931 84.3778 178.255 84.4375 178.334 84.4574V83.2642C178.2 83.2543 177.892 83.2443 177.718 83.2443C176.803 83.2443 176.007 83.7614 175.729 84.517H175.649V83.3636H174.516V91ZM180.408 86.4062C180.408 85.0739 181.234 84.3182 182.357 84.3182C183.446 84.3182 184.107 85.0291 184.107 86.2273V91H185.28V86.1477C185.28 84.1989 184.241 83.2642 182.695 83.2642C181.542 83.2642 180.826 83.7812 180.468 84.5568H180.368V83.3636H179.235V91H180.408V86.4062ZM193.265 91.1591C194.737 91.1591 195.234 90.2443 195.493 89.8267H195.632V91H196.765V80.8182H195.592V84.5767H195.493C195.234 84.179 194.777 83.2642 193.285 83.2642C191.356 83.2642 190.024 84.7955 190.024 87.2017C190.024 89.6278 191.356 91.1591 193.265 91.1591ZM193.425 90.1051C191.953 90.1051 191.197 88.8125 191.197 87.1818C191.197 85.571 191.933 84.3182 193.425 84.3182C194.856 84.3182 195.612 85.4716 195.612 87.1818C195.612 88.9119 194.836 90.1051 193.425 90.1051ZM198.587 91H199.761V86.1676C199.761 85.1335 200.576 84.3778 201.689 84.3778C202.003 84.3778 202.326 84.4375 202.405 84.4574V83.2642C202.271 83.2543 201.963 83.2443 201.789 83.2443C200.874 83.2443 200.079 83.7614 199.8 84.517H199.721V83.3636H198.587V91ZM203.306 91H204.48V83.3636H203.306V91ZM203.903 82.0909C204.36 82.0909 204.738 81.733 204.738 81.2955C204.738 80.858 204.36 80.5 203.903 80.5C203.445 80.5 203.068 80.858 203.068 81.2955C203.068 81.733 203.445 82.0909 203.903 82.0909ZM212.383 83.3636H211.11L209.002 89.4489H208.923L206.815 83.3636H205.542L208.366 91H209.559L212.383 83.3636ZM213.441 91H214.615V83.3636H213.441V91ZM214.038 82.0909C214.495 82.0909 214.873 81.733 214.873 81.2955C214.873 80.858 214.495 80.5 214.038 80.5C213.581 80.5 213.203 80.858 213.203 81.2955C213.203 81.733 213.581 82.0909 214.038 82.0909ZM217.447 86.4062C217.447 85.0739 218.272 84.3182 219.396 84.3182C220.485 84.3182 221.146 85.0291 221.146 86.2273V91H222.319V86.1477C222.319 84.1989 221.28 83.2642 219.734 83.2642C218.581 83.2642 217.865 83.7812 217.507 84.5568H217.407V83.3636H216.274V91H217.447V86.4062ZM227.056 94.0227C228.885 94.0227 230.357 93.1875 230.357 91.2188V83.3636H229.223V84.5767H229.104C228.845 84.179 228.368 83.2642 226.877 83.2642C224.948 83.2642 223.615 84.7955 223.615 87.142C223.615 89.5284 225.007 90.8807 226.857 90.8807C228.348 90.8807 228.825 90.0057 229.084 89.5881H229.183V91.1392C229.183 92.4119 228.289 92.9886 227.056 92.9886C225.668 92.9886 225.181 92.2578 224.868 91.8352L223.933 92.4915C224.411 93.2919 225.35 94.0227 227.056 94.0227ZM227.016 89.8267C225.544 89.8267 224.789 88.7131 224.789 87.1222C224.789 85.571 225.524 84.3182 227.016 84.3182C228.448 84.3182 229.203 85.4716 229.203 87.1222C229.203 88.8125 228.428 89.8267 227.016 89.8267ZM235.621 91H236.755V89.8267H236.894C237.152 90.2443 237.649 91.1591 239.121 91.1591C241.03 91.1591 242.362 89.6278 242.362 87.2017C242.362 84.7955 241.03 83.2642 239.101 83.2642C237.61 83.2642 237.152 84.179 236.894 84.5767H236.794V80.8182H235.621V91ZM236.774 87.1818C236.774 85.4716 237.53 84.3182 238.962 84.3182C240.453 84.3182 241.189 85.571 241.189 87.1818C241.189 88.8125 240.434 90.1051 238.962 90.1051C237.55 90.1051 236.774 88.9119 236.774 87.1818ZM244.149 93.8636C245.208 93.8636 245.954 93.3018 246.397 92.1136L249.648 83.3835L248.365 83.3636L246.257 89.4489H246.178L244.07 83.3636H242.797L245.621 91.0398L245.402 91.6364C244.975 92.7997 244.448 92.9091 243.593 92.6903L243.294 93.7244C243.414 93.7841 243.752 93.8636 244.149 93.8636ZM257.26 91.1591C259.328 91.1591 260.72 89.5881 260.72 87.2216C260.72 84.8352 259.328 83.2642 257.26 83.2642C255.192 83.2642 253.8 84.8352 253.8 87.2216C253.8 89.5881 255.192 91.1591 257.26 91.1591ZM257.26 90.1051C255.689 90.1051 254.973 88.7528 254.973 87.2216C254.973 85.6903 255.689 84.3182 257.26 84.3182C258.831 84.3182 259.547 85.6903 259.547 87.2216C259.547 88.7528 258.831 90.1051 257.26 90.1051ZM266.834 87.8778C266.834 89.3097 265.74 89.9659 264.865 89.9659C263.891 89.9659 263.195 89.25 263.195 88.1364V83.3636H262.021V88.2159C262.021 90.1648 263.056 91.0994 264.487 91.0994C265.641 91.0994 266.396 90.483 266.754 89.7074H266.834V91H268.007V83.3636H266.834V87.8778ZM269.666 91H270.84V86.1676C270.84 85.1335 271.655 84.3778 272.768 84.3778C273.082 84.3778 273.405 84.4375 273.484 84.4574V83.2642C273.35 83.2543 273.042 83.2443 272.868 83.2443C271.953 83.2443 271.158 83.7614 270.879 84.517H270.8V83.3636H269.666V91ZM277.992 91H279.125V89.8267H279.265C279.523 90.2443 280.02 91.1591 281.492 91.1591C283.401 91.1591 284.733 89.6278 284.733 87.2017C284.733 84.7955 283.401 83.2642 281.472 83.2642C279.98 83.2642 279.523 84.179 279.265 84.5767H279.165V80.8182H277.992V91ZM279.145 87.1818C279.145 85.4716 279.901 84.3182 281.333 84.3182C282.824 84.3182 283.56 85.571 283.56 87.1818C283.56 88.8125 282.804 90.1051 281.333 90.1051C279.921 90.1051 279.145 88.9119 279.145 87.1818ZM289.24 91.1591C290.791 91.1591 291.924 90.3835 292.282 89.2301L291.149 88.9119C290.851 89.7074 290.159 90.1051 289.24 90.1051C287.863 90.1051 286.913 89.2152 286.858 87.5795H292.402V87.0824C292.402 84.2386 290.711 83.2642 289.12 83.2642C287.052 83.2642 285.68 84.8949 285.68 87.2415C285.68 89.5881 287.032 91.1591 289.24 91.1591ZM286.858 86.5653C286.938 85.3771 287.778 84.3182 289.12 84.3182C290.393 84.3182 291.208 85.2727 291.208 86.5653H286.858ZM299.106 85.0739C298.738 83.9901 297.912 83.2642 296.401 83.2642C294.79 83.2642 293.597 84.179 293.597 85.4716C293.597 86.5256 294.223 87.2315 295.625 87.5597L296.898 87.858C297.669 88.0369 298.032 88.4048 298.032 88.9318C298.032 89.5881 297.336 90.125 296.242 90.125C295.282 90.125 294.681 89.7124 294.472 88.892L293.358 89.1705C293.632 90.468 294.701 91.1591 296.262 91.1591C298.037 91.1591 299.245 90.1896 299.245 88.8722C299.245 87.8082 298.579 87.1371 297.216 86.804L296.083 86.5256C295.178 86.3018 294.77 85.9986 294.77 85.4119C294.77 84.7557 295.466 84.2784 296.401 84.2784C297.425 84.2784 297.848 84.8452 298.052 85.3722L299.106 85.0739ZM303.842 83.3636H302.211V81.5341H301.038V83.3636H299.885V84.358H301.038V89.1307C301.038 90.4631 302.112 91.0994 303.106 91.0994C303.544 91.0994 303.822 91.0199 303.981 90.9602L303.742 89.9062C303.643 89.9261 303.484 89.9659 303.225 89.9659C302.708 89.9659 302.211 89.8068 302.211 88.8125V84.358H303.842V83.3636ZM311.885 83.3636H310.255V81.5341H309.081V83.3636H307.928V84.358H309.081V89.1307C309.081 90.4631 310.155 91.0994 311.15 91.0994C311.587 91.0994 311.865 91.0199 312.025 90.9602L311.786 89.9062C311.686 89.9261 311.527 89.9659 311.269 89.9659C310.752 89.9659 310.255 89.8068 310.255 88.8125V84.358H311.885V83.3636ZM317.973 87.8778C317.973 89.3097 316.879 89.9659 316.004 89.9659C315.03 89.9659 314.334 89.25 314.334 88.1364V83.3636H313.16V88.2159C313.16 90.1648 314.194 91.0994 315.626 91.0994C316.78 91.0994 317.535 90.483 317.893 89.7074H317.973V91H319.146V83.3636H317.973V87.8778ZM324.126 83.3636H322.495V81.5341H321.322V83.3636H320.169V84.358H321.322V89.1307C321.322 90.4631 322.396 91.0994 323.39 91.0994C323.828 91.0994 324.106 91.0199 324.265 90.9602L324.027 89.9062C323.927 89.9261 323.768 89.9659 323.51 89.9659C322.993 89.9659 322.495 89.8068 322.495 88.8125V84.358H324.126V83.3636ZM328.421 91.1591C330.489 91.1591 331.881 89.5881 331.881 87.2216C331.881 84.8352 330.489 83.2642 328.421 83.2642C326.353 83.2642 324.961 84.8352 324.961 87.2216C324.961 89.5881 326.353 91.1591 328.421 91.1591ZM328.421 90.1051C326.85 90.1051 326.134 88.7528 326.134 87.2216C326.134 85.6903 326.85 84.3182 328.421 84.3182C329.992 84.3182 330.708 85.6903 330.708 87.2216C330.708 88.7528 329.992 90.1051 328.421 90.1051ZM333.182 91H334.356V86.1676C334.356 85.1335 335.171 84.3778 336.285 84.3778C336.598 84.3778 336.921 84.4375 337.001 84.4574V83.2642C336.866 83.2543 336.558 83.2443 336.384 83.2443C335.469 83.2443 334.674 83.7614 334.396 84.517H334.316V83.3636H333.182V91ZM341.349 91H342.522V83.3636H341.349V91ZM341.946 82.0909C342.403 82.0909 342.781 81.733 342.781 81.2955C342.781 80.858 342.403 80.5 341.946 80.5C341.488 80.5 341.11 80.858 341.11 81.2955C341.11 81.733 341.488 82.0909 341.946 82.0909ZM345.355 86.4062C345.355 85.0739 346.18 84.3182 347.303 84.3182C348.392 84.3182 349.053 85.0291 349.053 86.2273V91H350.227V86.1477C350.227 84.1989 349.188 83.2642 347.641 83.2642C346.488 83.2642 345.772 83.7812 345.414 84.5568H345.315V83.3636H344.181V91H345.355V86.4062ZM357.575 91.179C358.908 91.179 359.604 90.4631 359.842 89.9659H359.902V91H361.075V85.9688C361.075 83.5426 359.226 83.2642 358.251 83.2642C357.098 83.2642 355.786 83.6619 355.189 85.054L356.303 85.4517C356.561 84.8949 357.173 84.2983 358.291 84.2983C359.37 84.2983 359.902 84.87 359.902 85.8494V85.8892C359.902 86.456 359.325 86.4062 357.933 86.5852C356.516 86.7692 354.97 87.0824 354.97 88.8324C354.97 90.3239 356.124 91.179 357.575 91.179ZM357.754 90.125C356.82 90.125 356.144 89.7074 356.144 88.892C356.144 87.9972 356.959 87.7188 357.874 87.5994C358.371 87.5398 359.703 87.4006 359.902 87.1619V88.2358C359.902 89.1903 359.146 90.125 357.754 90.125ZM367.539 87.8778C367.539 89.3097 366.446 89.9659 365.571 89.9659C364.596 89.9659 363.9 89.25 363.9 88.1364V83.3636H362.727V88.2159C362.727 90.1648 363.761 91.0994 365.193 91.0994C366.346 91.0994 367.102 90.483 367.46 89.7074H367.539V91H368.713V83.3636H367.539V87.8778ZM375.781 85.0739C375.413 83.9901 374.588 83.2642 373.076 83.2642C371.465 83.2642 370.272 84.179 370.272 85.4716C370.272 86.5256 370.899 87.2315 372.301 87.5597L373.573 87.858C374.344 88.0369 374.707 88.4048 374.707 88.9318C374.707 89.5881 374.011 90.125 372.917 90.125C371.958 90.125 371.356 89.7124 371.147 88.892L370.034 89.1705C370.307 90.468 371.376 91.1591 372.937 91.1591C374.712 91.1591 375.92 90.1896 375.92 88.8722C375.92 87.8082 375.254 87.1371 373.891 86.804L372.758 86.5256C371.853 86.3018 371.445 85.9986 371.445 85.4119C371.445 84.7557 372.141 84.2784 373.076 84.2784C374.1 84.2784 374.523 84.8452 374.727 85.3722L375.781 85.0739ZM380.517 83.3636H378.886V81.5341H377.713V83.3636H376.56V84.358H377.713V89.1307C377.713 90.4631 378.787 91.0994 379.781 91.0994C380.219 91.0994 380.497 91.0199 380.656 90.9602L380.418 89.9062C380.318 89.9261 380.159 89.9659 379.901 89.9659C379.384 89.9659 378.886 89.8068 378.886 88.8125V84.358H380.517V83.3636ZM381.792 91H382.965V86.1676C382.965 85.1335 383.781 84.3778 384.894 84.3778C385.207 84.3778 385.531 84.4375 385.61 84.4574V83.2642C385.476 83.2543 385.168 83.2443 384.994 83.2443C384.079 83.2443 383.283 83.7614 383.005 84.517H382.926V83.3636H381.792V91ZM388.758 91.179C390.091 91.179 390.787 90.4631 391.025 89.9659H391.085V91H392.258V85.9688C392.258 83.5426 390.409 83.2642 389.434 83.2642C388.281 83.2642 386.968 83.6619 386.372 85.054L387.485 85.4517C387.744 84.8949 388.355 84.2983 389.474 84.2983C390.553 84.2983 391.085 84.87 391.085 85.8494V85.8892C391.085 86.456 390.508 86.4062 389.116 86.5852C387.699 86.7692 386.153 87.0824 386.153 88.8324C386.153 90.3239 387.306 91.179 388.758 91.179ZM388.937 90.125C388.002 90.125 387.326 89.7074 387.326 88.892C387.326 87.9972 388.142 87.7188 389.056 87.5994C389.554 87.5398 390.886 87.4006 391.085 87.1619V88.2358C391.085 89.1903 390.329 90.125 388.937 90.125ZM395.083 80.8182H393.91V91H395.083V80.8182ZM396.742 91H397.915V83.3636H396.742V91ZM397.338 82.0909C397.796 82.0909 398.174 81.733 398.174 81.2955C398.174 80.858 397.796 80.5 397.338 80.5C396.881 80.5 396.503 80.858 396.503 81.2955C396.503 81.733 396.881 82.0909 397.338 82.0909ZM401.821 91.179C403.154 91.179 403.85 90.4631 404.088 89.9659H404.148V91H405.321V85.9688C405.321 83.5426 403.472 83.2642 402.497 83.2642C401.344 83.2642 400.032 83.6619 399.435 85.054L400.549 85.4517C400.807 84.8949 401.419 84.2983 402.537 84.2983C403.616 84.2983 404.148 84.87 404.148 85.8494V85.8892C404.148 86.456 403.571 86.4062 402.179 86.5852C400.762 86.7692 399.216 87.0824 399.216 88.8324C399.216 90.3239 400.37 91.179 401.821 91.179ZM402 90.125C401.066 90.125 400.39 89.7074 400.39 88.892C400.39 87.9972 401.205 87.7188 402.12 87.5994C402.617 87.5398 403.949 87.4006 404.148 87.1619V88.2358C404.148 89.1903 403.392 90.125 402 90.125ZM407.828 91.0795C408.32 91.0795 408.723 90.6768 408.723 90.1847C408.723 89.6925 408.32 89.2898 407.828 89.2898C407.336 89.2898 406.933 89.6925 406.933 90.1847C406.933 90.6768 407.336 91.0795 407.828 91.0795Z"
    fill="black"
  />
<path
    d="M152.918 39H155.551V32.8636H159.131C163.179 32.8636 165.182 30.4176 165.182 27.196C165.182 23.983 163.196 21.5455 159.139 21.5455H152.918V39ZM155.551 30.6307V23.804H158.858C161.466 23.804 162.531 25.2188 162.531 27.196C162.531 29.1733 161.466 30.6307 158.892 30.6307H155.551ZM171.157 39.2898C173.322 39.2898 174.541 38.1903 175.026 37.2102H175.129V39H177.617V30.3068C177.617 26.4972 174.617 25.7386 172.538 25.7386C170.168 25.7386 167.987 26.6932 167.134 29.0795L169.529 29.625C169.904 28.696 170.859 27.8011 172.572 27.8011C174.217 27.8011 175.061 28.6619 175.061 30.1449V30.2045C175.061 31.1335 174.106 31.1165 171.754 31.3892C169.274 31.679 166.734 32.3267 166.734 35.3011C166.734 37.875 168.668 39.2898 171.157 39.2898ZM171.711 37.2443C170.271 37.2443 169.231 36.5966 169.231 35.3352C169.231 33.9716 170.441 33.4858 171.916 33.2898C172.742 33.179 174.703 32.9574 175.069 32.5909V34.2784C175.069 35.8295 173.833 37.2443 171.711 37.2443ZM185.926 39.2642C189.019 39.2642 191.022 37.4062 191.304 34.858H188.823C188.5 36.2727 187.4 37.108 185.943 37.108C183.787 37.108 182.397 35.3097 182.397 32.4545C182.397 29.6506 183.812 27.8864 185.943 27.8864C187.562 27.8864 188.551 28.9091 188.823 30.1364H191.304C191.031 27.4943 188.875 25.7386 185.9 25.7386C182.21 25.7386 179.823 28.517 179.823 32.5142C179.823 36.4602 182.125 39.2642 185.926 39.2642ZM193.429 39H195.977V34.3551L197.247 33.0852L201.696 39H204.824L199.164 31.5256L204.466 25.9091H201.414L196.199 31.4489H195.977V21.5455H193.429V39ZM209.998 39.2898C212.162 39.2898 213.381 38.1903 213.867 37.2102H213.969V39H216.458V30.3068C216.458 26.4972 213.458 25.7386 211.378 25.7386C209.009 25.7386 206.827 26.6932 205.975 29.0795L208.37 29.625C208.745 28.696 209.699 27.8011 211.412 27.8011C213.057 27.8011 213.901 28.6619 213.901 30.1449V30.2045C213.901 31.1335 212.947 31.1165 210.594 31.3892C208.114 31.679 205.574 32.3267 205.574 35.3011C205.574 37.875 207.509 39.2898 209.998 39.2898ZM210.552 37.2443C209.111 37.2443 208.072 36.5966 208.072 35.3352C208.072 33.9716 209.282 33.4858 210.756 33.2898C211.583 33.179 213.543 32.9574 213.91 32.5909V34.2784C213.91 35.8295 212.674 37.2443 210.552 37.2443ZM224.741 44.1818C228.073 44.1818 230.647 42.6562 230.647 39.2898V25.9091H228.15V28.0312H227.962C227.511 27.2216 226.607 25.7386 224.17 25.7386C221.008 25.7386 218.681 28.2358 218.681 32.4034C218.681 36.5795 221.059 38.804 224.153 38.804C226.556 38.804 227.485 37.4489 227.945 36.6136H228.107V39.1875C228.107 41.2415 226.701 42.1278 224.766 42.1278C222.644 42.1278 221.817 41.0625 221.366 40.3125L219.175 41.2159C219.866 42.8182 221.613 44.1818 224.741 44.1818ZM224.715 36.6903C222.44 36.6903 221.255 34.9432 221.255 32.3693C221.255 29.8551 222.414 27.9034 224.715 27.9034C226.94 27.9034 228.133 29.7188 228.133 32.3693C228.133 35.071 226.914 36.6903 224.715 36.6903ZM239.107 39.2642C241.962 39.2642 243.982 37.858 244.561 35.7273L242.149 35.2926C241.689 36.5284 240.581 37.1591 239.132 37.1591C236.95 37.1591 235.485 35.7443 235.416 33.2216H244.723V32.3182C244.723 27.5881 241.894 25.7386 238.928 25.7386C235.28 25.7386 232.877 28.517 232.877 32.5398C232.877 36.6051 235.246 39.2642 239.107 39.2642ZM235.425 31.3125C235.527 29.4545 236.874 27.8438 238.945 27.8438C240.922 27.8438 242.217 29.3097 242.226 31.3125H235.425ZM256.76 29.1051C256.232 27.0682 254.638 25.7386 251.809 25.7386C248.851 25.7386 246.755 27.2983 246.755 29.6165C246.755 31.4744 247.88 32.7102 250.334 33.2557L252.55 33.7415C253.811 34.0227 254.399 34.5852 254.399 35.4034C254.399 36.4176 253.317 37.2102 251.647 37.2102C250.121 37.2102 249.141 36.554 248.834 35.267L246.371 35.642C246.797 37.9602 248.723 39.2642 251.664 39.2642C254.826 39.2642 257.016 37.5852 257.016 35.2159C257.016 33.3665 255.84 32.2244 253.436 31.6705L251.357 31.1932C249.916 30.8523 249.294 30.3665 249.303 29.4801C249.294 28.4744 250.385 27.7585 251.834 27.7585C253.419 27.7585 254.152 28.6364 254.451 29.5142L256.76 29.1051Z"
    fill="black"
  />
<rect width="107" height="113" fill="#FFC700" />
<path
    d="M16 74.1906C16.448 72.9334 16.6647 71.5173 17.3872 70.448C20.0172 66.5753 22.0113 62.3558 24.3812 58.3386C26.5921 54.6249 29.9445 52.6886 34.1929 52.5585C39.0049 52.414 43.8313 52.414 48.6432 52.5585C52.9783 52.6886 56.3886 54.6972 58.5561 58.5265C60.2902 61.5755 61.9664 64.6679 63.6715 67.7313C63.8738 68.107 64.1339 68.4539 64.4085 68.7862C65.998 70.6936 66.8361 72.8612 66.8506 75.3466C66.865 80.3609 66.8217 85.3607 66.8795 90.375C66.894 92.1668 66.2726 93.3951 64.553 93.9731C61.6196 93.9731 58.6717 93.9731 55.7383 93.9731C53.6141 93.2795 53.2529 91.6032 53.4407 89.6813C45.3775 89.6813 37.4298 89.6813 29.3954 89.6813C29.6411 91.661 29.2076 93.2795 27.1267 93.9731C24.1933 93.9731 21.2455 93.9731 18.312 93.9731C17.1416 93.5974 16.3757 92.8315 16 91.661C16 85.852 16 80.0141 16 74.1906ZM21.7946 83.8723C25.3204 83.8723 28.7596 83.8723 32.1988 83.8579C32.4011 83.8579 32.6756 83.6556 32.8057 83.4822C33.5138 82.4995 34.1785 81.5169 34.8576 80.5199C35.5079 79.5661 36.3894 79.1037 37.5454 79.1182C40.1898 79.1326 42.8342 79.1326 45.4931 79.1182C46.5913 79.1182 47.4438 79.5372 48.0797 80.4331C48.8022 81.4302 49.5391 82.4128 50.2328 83.4244C50.4784 83.7856 50.753 83.9157 51.172 83.9157C54.1777 83.9012 57.1833 83.9012 60.2035 83.9012C60.478 83.9012 60.767 83.9012 61.0705 83.9012C61.0705 80.8378 61.1427 77.861 61.0271 74.8842C60.9982 74.1184 60.5214 73.2658 60.0301 72.63C58.8451 71.1272 57.1689 70.6069 55.2904 70.6069C46.0711 70.6069 36.8518 70.6069 27.6325 70.6069C27.1123 70.6069 26.5776 70.6503 26.0574 70.7514C23.7887 71.185 21.9102 72.9623 21.8379 74.9998C21.7223 77.9188 21.7946 80.8522 21.7946 83.8723ZM55.4349 64.7835C54.8279 63.6708 54.2499 62.6737 53.7153 61.6622C52.5015 59.3502 50.5507 58.3097 48.0074 58.3097C43.629 58.2808 39.2505 58.2953 34.8576 58.3097C34.2363 58.3097 33.6149 58.3964 33.008 58.5409C29.6989 59.3068 28.933 62.298 27.4302 64.7835C36.8084 64.7835 46.0422 64.7835 55.4349 64.7835Z"
    fill="#0065AE"
  />
<path
    d="M89.9856 72.6011C89.3931 74.3351 88.1793 74.9854 86.373 74.9276C84.1621 74.8553 81.9367 74.9131 79.7258 74.9131C77.7317 74.9131 76.5612 73.7282 76.5468 71.7052C76.5468 71.3439 76.5468 70.9971 76.5468 70.5781C75.5208 70.5781 74.5671 70.5781 73.5989 70.5781C71.6337 70.5781 70.3332 69.422 70.3187 67.7024C70.3043 65.9684 71.6192 64.7979 73.57 64.7979C76.8213 64.7979 80.0727 64.7979 83.324 64.7979C83.5841 64.7979 83.8442 64.7979 84.1043 64.7979C84.1476 64.6823 84.191 64.6245 84.191 64.5523C84.191 61.3443 84.2343 58.1508 84.1765 54.9428C84.1476 52.8331 82.3558 50.969 79.986 50.5066C79.3935 50.391 78.7866 50.3476 78.1941 50.3476C71.5181 50.3332 64.8565 50.3476 58.1805 50.3332C56.0563 50.3332 54.6401 48.4402 55.3048 46.5183C55.7095 45.3045 56.7932 44.5675 58.2094 44.5675C63.0502 44.5675 67.8911 44.5675 72.7319 44.5675C74.6249 44.5675 76.5179 44.5675 78.6565 44.5675C77.645 42.9202 76.8213 41.3307 75.752 39.9434C74.726 38.6284 73.1654 38.0938 71.5181 38.0793C66.8651 38.036 62.2265 38.0071 57.5735 38.0938C55.3048 38.1371 53.513 39.1631 52.4003 41.2151C51.8223 42.2699 51.2588 43.3392 50.6663 44.3797C50.3917 44.8565 50.0883 45.3334 49.727 45.738C48.8022 46.7929 47.4294 47.0241 46.259 46.3883C45.1463 45.7669 44.3949 44.3652 44.9584 43.1803C46.3457 40.2324 47.5306 37.1256 50.175 34.9725C52.3136 33.2385 54.7702 32.3281 57.4868 32.2992C62.2121 32.2414 66.9373 32.1836 71.6481 32.3137C76.0555 32.4293 79.4946 34.4234 81.7055 38.2961C83.0928 40.7237 84.3933 43.1947 85.7805 45.6079C86.4886 46.8507 87.2834 48.0645 88.0926 49.2494C88.974 50.5499 89.5954 51.9372 89.8555 53.4834C89.8844 53.6423 89.9422 53.8013 90 53.9602C89.9856 60.1738 89.9856 66.3875 89.9856 72.6011Z"
    fill="#0065AE"
  />
<path
    d="M55.3048 20.002C56.143 20.1899 57.0244 20.2766 57.8047 20.5945C59.0764 21.1291 60.3624 21.7216 61.504 22.4875C62.8768 23.4123 63.0502 25.2186 62.082 26.5191C61.1283 27.7763 59.4232 28.0508 58.0937 27.0971C56.8077 26.1723 55.3915 25.7821 53.8309 25.7821C49.4236 25.7821 45.0162 25.7677 40.6089 25.7966C38.0656 25.811 36.1148 26.8659 34.9155 29.178C34.3808 30.1895 33.8028 31.1865 33.1959 32.2848C35.4068 32.2848 37.5021 32.2848 39.5829 32.2848C39.9875 32.2848 40.4066 32.2559 40.8112 32.3426C42.2851 32.6171 43.2822 33.961 43.1521 35.4349C43.0221 36.9089 41.8083 38.036 40.291 38.0504C37.9067 38.0793 35.5224 38.0504 33.1381 38.0649C31.5919 38.0793 30.2047 38.5562 29.0631 39.6255C28.0805 40.5359 27.5603 41.663 27.5603 43.0213C27.5603 44.4953 27.5747 45.9547 27.5603 47.4287C27.5458 49.1916 26.332 50.4777 24.6847 50.4921C23.0373 50.5066 21.7802 49.2205 21.7802 47.4576C21.7946 45.4345 21.7657 43.4115 21.9247 41.4029C22.0692 39.5822 22.9217 38.0071 24.0344 36.5765C24.3523 36.1574 24.6702 35.7239 24.9159 35.276C26.5921 32.2703 28.2683 29.2647 29.9301 26.259C31.8809 22.7187 34.8866 20.7245 38.8604 20.1321C39.0049 20.1176 39.135 20.0598 39.265 20.0165C44.6116 20.002 49.9582 20.002 55.3048 20.002Z"
    fill="#0065AE"
  />
<path
    d="M34.2362 41.9665C35.8258 41.9809 37.1118 43.2959 37.0974 44.8854C37.0829 46.475 35.768 47.761 34.1784 47.7466C32.5889 47.7321 31.3028 46.4172 31.3173 44.8276C31.3317 43.2381 32.6467 41.952 34.2362 41.9665Z"
    fill="#0065AE"
  />
<path
    d="M80.3038 57.5728C80.3038 59.1623 79.0032 60.4628 77.4137 60.4628C75.8242 60.4628 74.5236 59.1623 74.5381 57.5728C74.5381 55.9832 75.8386 54.6827 77.4281 54.6972C79.0032 54.6827 80.3038 55.9832 80.3038 57.5728Z"
    fill="#0065AE"
  />
<path
    d="M28.4562 80.2598C26.8667 80.2742 25.5517 78.9881 25.5372 77.3986C25.5228 75.8091 26.8089 74.4941 28.3984 74.4796C29.9879 74.4652 31.3029 75.7513 31.3173 77.3408C31.3318 78.9303 30.0457 80.2453 28.4562 80.2598Z"
    fill="#0065AE"
  />
<path
    d="M57.1833 77.3697C57.1833 78.9592 55.8828 80.2597 54.2933 80.2597C52.7037 80.2597 51.4032 78.9592 51.4032 77.3697C51.4032 75.7802 52.6893 74.4796 54.2933 74.4796C55.8828 74.4796 57.1833 75.7802 57.1833 77.3697Z"
    fill="#0065AE"
  />
</svg>
