<svg width="493" height="113" viewBox="0 0 493 113" fill="none" xmlns="http://www.w3.org/2000/svg">
<rect x="118" width="375" height="113" fill="#ECECEC"/>
<path d="M159.193 61H160.466C160.088 59.0312 158.438 57.679 156.29 57.679C153.68 57.679 151.835 59.6875 151.835 62.9091C151.835 66.1307 153.665 68.1392 156.369 68.1392C158.795 68.1392 160.526 66.5234 160.526 64.0028V62.9091H156.648V64.0028H159.332C159.298 65.8324 158.094 66.9858 156.369 66.9858C154.48 66.9858 153.028 65.554 153.028 62.9091C153.028 60.2642 154.48 58.8324 156.29 58.8324C157.761 58.8324 158.761 59.6626 159.193 61ZM165.19 68.1591C166.741 68.1591 167.875 67.3835 168.232 66.2301L167.099 65.9119C166.801 66.7074 166.11 67.1051 165.19 67.1051C163.813 67.1051 162.863 66.2152 162.808 64.5795H168.352V64.0824C168.352 61.2386 166.661 60.2642 165.071 60.2642C163.002 60.2642 161.63 61.8949 161.63 64.2415C161.63 66.5881 162.982 68.1591 165.19 68.1591ZM162.808 63.5653C162.888 62.3771 163.728 61.3182 165.071 61.3182C166.343 61.3182 167.159 62.2727 167.159 63.5653H162.808ZM172.968 60.3636H171.337V58.5341H170.164V60.3636H169.01V61.358H170.164V66.1307C170.164 67.4631 171.238 68.0994 172.232 68.0994C172.669 68.0994 172.948 68.0199 173.107 67.9602L172.868 66.9062C172.769 66.9261 172.61 66.9659 172.351 66.9659C171.834 66.9659 171.337 66.8068 171.337 65.8125V61.358H172.968V60.3636ZM179.937 68.179C181.27 68.179 181.966 67.4631 182.204 66.9659H182.264V68H183.437V62.9688C183.437 60.5426 181.588 60.2642 180.613 60.2642C179.46 60.2642 178.147 60.6619 177.551 62.054L178.664 62.4517C178.923 61.8949 179.534 61.2983 180.653 61.2983C181.732 61.2983 182.264 61.87 182.264 62.8494V62.8892C182.264 63.456 181.687 63.4062 180.295 63.5852C178.878 63.7692 177.332 64.0824 177.332 65.8324C177.332 67.3239 178.485 68.179 179.937 68.179ZM180.116 67.125C179.182 67.125 178.505 66.7074 178.505 65.892C178.505 64.9972 179.321 64.7188 180.235 64.5994C180.733 64.5398 182.065 64.4006 182.264 64.1619V65.2358C182.264 66.1903 181.508 67.125 180.116 67.125ZM193.945 62.0739C193.577 60.9901 192.752 60.2642 191.241 60.2642C189.63 60.2642 188.437 61.179 188.437 62.4716C188.437 63.5256 189.063 64.2315 190.465 64.5597L191.738 64.858C192.509 65.0369 192.871 65.4048 192.871 65.9318C192.871 66.5881 192.175 67.125 191.082 67.125C190.122 67.125 189.521 66.7124 189.312 65.892L188.198 66.1705C188.472 67.468 189.54 68.1591 191.102 68.1591C192.876 68.1591 194.085 67.1896 194.085 65.8722C194.085 64.8082 193.418 64.1371 192.056 63.804L190.923 63.5256C190.018 63.3018 189.61 62.9986 189.61 62.4119C189.61 61.7557 190.306 61.2784 191.241 61.2784C192.265 61.2784 192.687 61.8452 192.891 62.3722L193.945 62.0739ZM195.361 68H196.534V60.3636H195.361V68ZM195.957 59.0909C196.415 59.0909 196.792 58.733 196.792 58.2955C196.792 57.858 196.415 57.5 195.957 57.5C195.5 57.5 195.122 57.858 195.122 58.2955C195.122 58.733 195.5 59.0909 195.957 59.0909ZM199.366 63.4062C199.366 62.0739 200.192 61.3182 201.315 61.3182C202.404 61.3182 203.065 62.0291 203.065 63.2273V68H204.238V63.1477C204.238 61.1989 203.199 60.2642 201.653 60.2642C200.5 60.2642 199.784 60.7812 199.426 61.5568H199.326V60.3636H198.193V68H199.366V63.4062ZM208.975 71.0227C210.804 71.0227 212.276 70.1875 212.276 68.2188V60.3636H211.142V61.5767H211.023C210.765 61.179 210.287 60.2642 208.796 60.2642C206.867 60.2642 205.534 61.7955 205.534 64.142C205.534 66.5284 206.926 67.8807 208.776 67.8807C210.267 67.8807 210.745 67.0057 211.003 66.5881H211.103V68.1392C211.103 69.4119 210.208 69.9886 208.975 69.9886C207.588 69.9886 207.1 69.2578 206.787 68.8352L205.853 69.4915C206.33 70.2919 207.27 71.0227 208.975 71.0227ZM208.935 66.8267C207.463 66.8267 206.708 65.7131 206.708 64.1222C206.708 62.571 207.444 61.3182 208.935 61.3182C210.367 61.3182 211.122 62.4716 211.122 64.1222C211.122 65.8125 210.347 66.8267 208.935 66.8267ZM215.107 57.8182H213.934V68H215.107V57.8182ZM219.968 68.1591C221.519 68.1591 222.652 67.3835 223.01 66.2301L221.877 65.9119C221.578 66.7074 220.887 67.1051 219.968 67.1051C218.59 67.1051 217.641 66.2152 217.586 64.5795H223.13V64.0824C223.13 61.2386 221.439 60.2642 219.848 60.2642C217.78 60.2642 216.408 61.8949 216.408 64.2415C216.408 66.5881 217.76 68.1591 219.968 68.1591ZM217.586 63.5653C217.666 62.3771 218.506 61.3182 219.848 61.3182C221.121 61.3182 221.936 62.2727 221.936 63.5653H217.586ZM231.193 60.3636H229.562V58.5341H228.389V60.3636H227.235V61.358H228.389V66.1307C228.389 67.4631 229.463 68.0994 230.457 68.0994C230.895 68.0994 231.173 68.0199 231.332 67.9602L231.093 66.9062C230.994 66.9261 230.835 66.9659 230.576 66.9659C230.059 66.9659 229.562 66.8068 229.562 65.8125V61.358H231.193V60.3636ZM232.468 68H233.641V60.3636H232.468V68ZM233.064 59.0909C233.522 59.0909 233.9 58.733 233.9 58.2955C233.9 57.858 233.522 57.5 233.064 57.5C232.607 57.5 232.229 57.858 232.229 58.2955C232.229 58.733 232.607 59.0909 233.064 59.0909ZM235.3 68H236.473V63.2273C236.473 62.1087 237.289 61.3182 238.203 61.3182C239.093 61.3182 239.715 61.8999 239.715 62.7699V68H240.908V63.0284C240.908 62.044 241.524 61.3182 242.598 61.3182C243.434 61.3182 244.149 61.7607 244.149 62.8892V68H245.323V62.8892C245.323 61.0945 244.358 60.2642 242.996 60.2642C241.902 60.2642 241.102 60.7663 240.709 61.5568H240.63C240.252 60.7415 239.586 60.2642 238.581 60.2642C237.587 60.2642 236.851 60.7415 236.533 61.5568H236.434V60.3636H235.3V68ZM250.18 68.1591C251.731 68.1591 252.864 67.3835 253.222 66.2301L252.089 65.9119C251.791 66.7074 251.099 67.1051 250.18 67.1051C248.803 67.1051 247.853 66.2152 247.798 64.5795H253.342V64.0824C253.342 61.2386 251.651 60.2642 250.06 60.2642C247.992 60.2642 246.62 61.8949 246.62 64.2415C246.62 66.5881 247.972 68.1591 250.18 68.1591ZM247.798 63.5653C247.878 62.3771 248.718 61.3182 250.06 61.3182C251.333 61.3182 252.148 62.2727 252.148 63.5653H247.798ZM260.967 68.1591C262.439 68.1591 262.936 67.2443 263.195 66.8267H263.334V68H264.467V57.8182H263.294V61.5767H263.195C262.936 61.179 262.479 60.2642 260.987 60.2642C259.058 60.2642 257.726 61.7955 257.726 64.2017C257.726 66.6278 259.058 68.1591 260.967 68.1591ZM261.127 67.1051C259.655 67.1051 258.899 65.8125 258.899 64.1818C258.899 62.571 259.635 61.3182 261.127 61.3182C262.558 61.3182 263.314 62.4716 263.314 64.1818C263.314 65.9119 262.538 67.1051 261.127 67.1051ZM266.289 68H267.463V63.1676C267.463 62.1335 268.278 61.3778 269.392 61.3778C269.705 61.3778 270.028 61.4375 270.107 61.4574V60.2642C269.973 60.2543 269.665 60.2443 269.491 60.2443C268.576 60.2443 267.781 60.7614 267.502 61.517H267.423V60.3636H266.289V68ZM271.008 68H272.182V60.3636H271.008V68ZM271.605 59.0909C272.062 59.0909 272.44 58.733 272.44 58.2955C272.44 57.858 272.062 57.5 271.605 57.5C271.147 57.5 270.77 57.858 270.77 58.2955C270.77 58.733 271.147 59.0909 271.605 59.0909ZM280.085 60.3636H278.812L276.704 66.4489H276.625L274.517 60.3636H273.244L276.068 68H277.261L280.085 60.3636ZM281.143 68H282.317V60.3636H281.143V68ZM281.74 59.0909C282.197 59.0909 282.575 58.733 282.575 58.2955C282.575 57.858 282.197 57.5 281.74 57.5C281.283 57.5 280.905 57.858 280.905 58.2955C280.905 58.733 281.283 59.0909 281.74 59.0909ZM285.149 63.4062C285.149 62.0739 285.974 61.3182 287.098 61.3182C288.187 61.3182 288.848 62.0291 288.848 63.2273V68H290.021V63.1477C290.021 61.1989 288.982 60.2642 287.436 60.2642C286.283 60.2642 285.567 60.7812 285.209 61.5568H285.109V60.3636H283.976V68H285.149V63.4062ZM294.758 71.0227C296.587 71.0227 298.059 70.1875 298.059 68.2188V60.3636H296.925V61.5767H296.806C296.547 61.179 296.07 60.2642 294.579 60.2642C292.65 60.2642 291.317 61.7955 291.317 64.142C291.317 66.5284 292.709 67.8807 294.559 67.8807C296.05 67.8807 296.527 67.0057 296.786 66.5881H296.885V68.1392C296.885 69.4119 295.991 69.9886 294.758 69.9886C293.371 69.9886 292.883 69.2578 292.57 68.8352L291.635 69.4915C292.113 70.2919 293.052 71.0227 294.758 71.0227ZM294.718 66.8267C293.246 66.8267 292.491 65.7131 292.491 64.1222C292.491 62.571 293.226 61.3182 294.718 61.3182C296.15 61.3182 296.905 62.4716 296.905 64.1222C296.905 65.8125 296.13 66.8267 294.718 66.8267ZM304.337 57.8182H303.164V68H304.337V57.8182ZM309.198 68.1591C310.749 68.1591 311.883 67.3835 312.241 66.2301L311.107 65.9119C310.809 66.7074 310.118 67.1051 309.198 67.1051C307.821 67.1051 306.871 66.2152 306.817 64.5795H312.36V64.0824C312.36 61.2386 310.67 60.2642 309.079 60.2642C307.01 60.2642 305.638 61.8949 305.638 64.2415C305.638 66.5881 306.991 68.1591 309.198 68.1591ZM306.817 63.5653C306.896 62.3771 307.736 61.3182 309.079 61.3182C310.351 61.3182 311.167 62.2727 311.167 63.5653H306.817ZM319.064 62.0739C318.696 60.9901 317.871 60.2642 316.359 60.2642C314.748 60.2642 313.555 61.179 313.555 62.4716C313.555 63.5256 314.182 64.2315 315.584 64.5597L316.856 64.858C317.627 65.0369 317.99 65.4048 317.99 65.9318C317.99 66.5881 317.294 67.125 316.2 67.125C315.241 67.125 314.639 66.7124 314.43 65.892L313.317 66.1705C313.59 67.468 314.659 68.1591 316.22 68.1591C317.995 68.1591 319.203 67.1896 319.203 65.8722C319.203 64.8082 318.537 64.1371 317.175 63.804L316.041 63.5256C315.136 63.3018 314.729 62.9986 314.729 62.4119C314.729 61.7557 315.425 61.2784 316.359 61.2784C317.383 61.2784 317.806 61.8452 318.01 62.3722L319.064 62.0739ZM325.888 62.0739C325.52 60.9901 324.695 60.2642 323.184 60.2642C321.573 60.2642 320.38 61.179 320.38 62.4716C320.38 63.5256 321.006 64.2315 322.408 64.5597L323.681 64.858C324.451 65.0369 324.814 65.4048 324.814 65.9318C324.814 66.5881 324.118 67.125 323.025 67.125C322.065 67.125 321.463 66.7124 321.255 65.892L320.141 66.1705C320.414 67.468 321.483 68.1591 323.044 68.1591C324.819 68.1591 326.027 67.1896 326.027 65.8722C326.027 64.8082 325.361 64.1371 323.999 63.804L322.865 63.5256C321.961 63.3018 321.553 62.9986 321.553 62.4119C321.553 61.7557 322.249 61.2784 323.184 61.2784C324.208 61.2784 324.63 61.8452 324.834 62.3722L325.888 62.0739ZM330.406 68.1591C332.474 68.1591 333.866 66.5881 333.866 64.2216C333.866 61.8352 332.474 60.2642 330.406 60.2642C328.338 60.2642 326.946 61.8352 326.946 64.2216C326.946 66.5881 328.338 68.1591 330.406 68.1591ZM330.406 67.1051C328.835 67.1051 328.119 65.7528 328.119 64.2216C328.119 62.6903 328.835 61.3182 330.406 61.3182C331.977 61.3182 332.693 62.6903 332.693 64.2216C332.693 65.7528 331.977 67.1051 330.406 67.1051ZM336.34 63.4062C336.34 62.0739 337.166 61.3182 338.289 61.3182C339.378 61.3182 340.039 62.0291 340.039 63.2273V68H341.213V63.1477C341.213 61.1989 340.173 60.2642 338.627 60.2642C337.474 60.2642 336.758 60.7812 336.4 61.5568H336.301V60.3636H335.167V68H336.34V63.4062ZM152.233 91H153.366V89.8267H153.506C153.764 90.2443 154.261 91.1591 155.733 91.1591C157.642 91.1591 158.974 89.6278 158.974 87.2017C158.974 84.7955 157.642 83.2642 155.713 83.2642C154.222 83.2642 153.764 84.179 153.506 84.5767H153.406V80.8182H152.233V91ZM153.386 87.1818C153.386 85.4716 154.142 84.3182 155.574 84.3182C157.065 84.3182 157.801 85.571 157.801 87.1818C157.801 88.8125 157.045 90.1051 155.574 90.1051C154.162 90.1051 153.386 88.9119 153.386 87.1818ZM160.761 93.8636C161.82 93.8636 162.566 93.3018 163.009 92.1136L166.26 83.3835L164.977 83.3636L162.869 89.4489H162.79L160.682 83.3636H159.409L162.233 91.0398L162.014 91.6364C161.587 92.7997 161.06 92.9091 160.205 92.6903L159.906 93.7244C160.026 93.7841 160.364 93.8636 160.761 93.8636ZM173.872 91.1591C175.94 91.1591 177.332 89.5881 177.332 87.2216C177.332 84.8352 175.94 83.2642 173.872 83.2642C171.804 83.2642 170.412 84.8352 170.412 87.2216C170.412 89.5881 171.804 91.1591 173.872 91.1591ZM173.872 90.1051C172.301 90.1051 171.585 88.7528 171.585 87.2216C171.585 85.6903 172.301 84.3182 173.872 84.3182C175.443 84.3182 176.159 85.6903 176.159 87.2216C176.159 88.7528 175.443 90.1051 173.872 90.1051ZM183.446 87.8778C183.446 89.3097 182.352 89.9659 181.477 89.9659C180.503 89.9659 179.807 89.25 179.807 88.1364V83.3636H178.633V88.2159C178.633 90.1648 179.667 91.0994 181.099 91.0994C182.253 91.0994 183.008 90.483 183.366 89.7074H183.446V91H184.619V83.3636H183.446V87.8778ZM186.278 91H187.451V86.1676C187.451 85.1335 188.267 84.3778 189.38 84.3778C189.694 84.3778 190.017 84.4375 190.096 84.4574V83.2642C189.962 83.2543 189.654 83.2443 189.48 83.2443C188.565 83.2443 187.77 83.7614 187.491 84.517H187.412V83.3636H186.278V91ZM194.604 91H195.737V89.8267H195.876C196.135 90.2443 196.632 91.1591 198.104 91.1591C200.013 91.1591 201.345 89.6278 201.345 87.2017C201.345 84.7955 200.013 83.2642 198.084 83.2642C196.592 83.2642 196.135 84.179 195.876 84.5767H195.777V80.8182H194.604V91ZM195.757 87.1818C195.757 85.4716 196.513 84.3182 197.945 84.3182C199.436 84.3182 200.172 85.571 200.172 87.1818C200.172 88.8125 199.416 90.1051 197.945 90.1051C196.533 90.1051 195.757 88.9119 195.757 87.1818ZM205.852 91.1591C207.403 91.1591 208.536 90.3835 208.894 89.2301L207.761 88.9119C207.462 89.7074 206.771 90.1051 205.852 90.1051C204.475 90.1051 203.525 89.2152 203.47 87.5795H209.014V87.0824C209.014 84.2386 207.323 83.2642 205.732 83.2642C203.664 83.2642 202.292 84.8949 202.292 87.2415C202.292 89.5881 203.644 91.1591 205.852 91.1591ZM203.47 86.5653C203.55 85.3771 204.39 84.3182 205.732 84.3182C207.005 84.3182 207.82 85.2727 207.82 86.5653H203.47ZM215.717 85.0739C215.35 83.9901 214.524 83.2642 213.013 83.2642C211.402 83.2642 210.209 84.179 210.209 85.4716C210.209 86.5256 210.835 87.2315 212.237 87.5597L213.51 87.858C214.281 88.0369 214.644 88.4048 214.644 88.9318C214.644 89.5881 213.948 90.125 212.854 90.125C211.894 90.125 211.293 89.7124 211.084 88.892L209.97 89.1705C210.244 90.468 211.313 91.1591 212.874 91.1591C214.649 91.1591 215.857 90.1896 215.857 88.8722C215.857 87.8082 215.19 87.1371 213.828 86.804L212.695 86.5256C211.79 86.3018 211.382 85.9986 211.382 85.4119C211.382 84.7557 212.078 84.2784 213.013 84.2784C214.037 84.2784 214.46 84.8452 214.664 85.3722L215.717 85.0739ZM220.454 83.3636H218.823V81.5341H217.65V83.3636H216.496V84.358H217.65V89.1307C217.65 90.4631 218.724 91.0994 219.718 91.0994C220.156 91.0994 220.434 91.0199 220.593 90.9602L220.354 89.9062C220.255 89.9261 220.096 89.9659 219.837 89.9659C219.32 89.9659 218.823 89.8068 218.823 88.8125V84.358H220.454V83.3636ZM228.497 83.3636H226.867V81.5341H225.693V83.3636H224.54V84.358H225.693V89.1307C225.693 90.4631 226.767 91.0994 227.762 91.0994C228.199 91.0994 228.477 91.0199 228.637 90.9602L228.398 89.9062C228.298 89.9261 228.139 89.9659 227.881 89.9659C227.364 89.9659 226.867 89.8068 226.867 88.8125V84.358H228.497V83.3636ZM234.585 87.8778C234.585 89.3097 233.491 89.9659 232.616 89.9659C231.642 89.9659 230.946 89.25 230.946 88.1364V83.3636H229.772V88.2159C229.772 90.1648 230.806 91.0994 232.238 91.0994C233.392 91.0994 234.147 90.483 234.505 89.7074H234.585V91H235.758V83.3636H234.585V87.8778ZM240.738 83.3636H239.107V81.5341H237.934V83.3636H236.781V84.358H237.934V89.1307C237.934 90.4631 239.008 91.0994 240.002 91.0994C240.44 91.0994 240.718 91.0199 240.877 90.9602L240.639 89.9062C240.539 89.9261 240.38 89.9659 240.122 89.9659C239.604 89.9659 239.107 89.8068 239.107 88.8125V84.358H240.738V83.3636ZM245.033 91.1591C247.101 91.1591 248.493 89.5881 248.493 87.2216C248.493 84.8352 247.101 83.2642 245.033 83.2642C242.965 83.2642 241.573 84.8352 241.573 87.2216C241.573 89.5881 242.965 91.1591 245.033 91.1591ZM245.033 90.1051C243.462 90.1051 242.746 88.7528 242.746 87.2216C242.746 85.6903 243.462 84.3182 245.033 84.3182C246.604 84.3182 247.32 85.6903 247.32 87.2216C247.32 88.7528 246.604 90.1051 245.033 90.1051ZM249.794 91H250.968V86.1676C250.968 85.1335 251.783 84.3778 252.897 84.3778C253.21 84.3778 253.533 84.4375 253.613 84.4574V83.2642C253.478 83.2543 253.17 83.2443 252.996 83.2443C252.081 83.2443 251.286 83.7614 251.007 84.517H250.928V83.3636H249.794V91ZM254.494 91.0795C254.986 91.0795 255.388 90.6768 255.388 90.1847C255.388 89.6925 254.986 89.2898 254.494 89.2898C254.001 89.2898 253.599 89.6925 253.599 90.1847C253.599 90.6768 254.001 91.0795 254.494 91.0795Z" fill="black"/>
<path d="M162.438 26.1307H164.977C164.901 23.3352 162.429 21.3068 158.884 21.3068C155.381 21.3068 152.696 23.3097 152.696 26.3182C152.696 28.7472 154.435 30.1705 157.239 30.929L159.301 31.4915C161.168 31.9858 162.608 32.5994 162.608 34.1506C162.608 35.8551 160.98 36.9801 158.739 36.9801C156.71 36.9801 155.023 36.0767 154.869 34.1761H152.227C152.398 37.3381 154.844 39.2898 158.756 39.2898C162.855 39.2898 165.216 37.1335 165.216 34.1761C165.216 31.0312 162.412 29.8125 160.196 29.267L158.491 28.8239C157.128 28.4744 155.312 27.8352 155.321 26.1648C155.321 24.6818 156.676 23.5824 158.824 23.5824C160.827 23.5824 162.25 24.5199 162.438 26.1307ZM167.558 39H170.107V25.9091H167.558V39ZM168.845 23.8892C169.723 23.8892 170.456 23.2074 170.456 22.3722C170.456 21.5369 169.723 20.8466 168.845 20.8466C167.959 20.8466 167.235 21.5369 167.235 22.3722C167.235 23.2074 167.959 23.8892 168.845 23.8892ZM175.483 31.2273C175.483 29.1392 176.762 27.946 178.534 27.946C180.264 27.946 181.313 29.0795 181.313 30.9801V39H183.861V30.6733C183.861 27.4347 182.08 25.7386 179.404 25.7386C177.435 25.7386 176.148 26.6506 175.543 28.0398H175.381V25.9091H172.935V39H175.483V31.2273ZM192.167 44.1818C195.5 44.1818 198.074 42.6562 198.074 39.2898V25.9091H195.576V28.0312H195.389C194.937 27.2216 194.034 25.7386 191.596 25.7386C188.434 25.7386 186.108 28.2358 186.108 32.4034C186.108 36.5795 188.486 38.804 191.579 38.804C193.983 38.804 194.912 37.4489 195.372 36.6136H195.534V39.1875C195.534 41.2415 194.128 42.1278 192.193 42.1278C190.071 42.1278 189.244 41.0625 188.792 40.3125L186.602 41.2159C187.292 42.8182 189.039 44.1818 192.167 44.1818ZM192.142 36.6903C189.866 36.6903 188.682 34.9432 188.682 32.3693C188.682 29.8551 189.841 27.9034 192.142 27.9034C194.366 27.9034 195.559 29.7188 195.559 32.3693C195.559 35.071 194.341 36.6903 192.142 36.6903ZM203.439 21.5455H200.891V39H203.439V21.5455ZM211.91 39.2642C214.765 39.2642 216.785 37.858 217.364 35.7273L214.952 35.2926C214.492 36.5284 213.384 37.1591 211.935 37.1591C209.754 37.1591 208.288 35.7443 208.219 33.2216H217.526V32.3182C217.526 27.5881 214.697 25.7386 211.731 25.7386C208.083 25.7386 205.68 28.517 205.68 32.5398C205.68 36.6051 208.049 39.2642 211.91 39.2642ZM208.228 31.3125C208.33 29.4545 209.677 27.8438 211.748 27.8438C213.725 27.8438 215.021 29.3097 215.029 31.3125H208.228ZM225.71 39H236.252V36.733H228.343V21.5455H225.71V39ZM244.094 39.2642C246.949 39.2642 248.969 37.858 249.549 35.7273L247.137 35.2926C246.677 36.5284 245.569 37.1591 244.12 37.1591C241.938 37.1591 240.472 35.7443 240.404 33.2216H249.711V32.3182C249.711 27.5881 246.881 25.7386 243.915 25.7386C240.267 25.7386 237.864 28.517 237.864 32.5398C237.864 36.6051 240.233 39.2642 244.094 39.2642ZM240.412 31.3125C240.515 29.4545 241.861 27.8438 243.932 27.8438C245.91 27.8438 247.205 29.3097 247.213 31.3125H240.412ZM261.748 29.1051C261.219 27.0682 259.626 25.7386 256.796 25.7386C253.839 25.7386 251.742 27.2983 251.742 29.6165C251.742 31.4744 252.867 32.7102 255.322 33.2557L257.537 33.7415C258.799 34.0227 259.387 34.5852 259.387 35.4034C259.387 36.4176 258.305 37.2102 256.634 37.2102C255.109 37.2102 254.128 36.554 253.822 35.267L251.359 35.642C251.785 37.9602 253.711 39.2642 256.651 39.2642C259.813 39.2642 262.003 37.5852 262.003 35.2159C262.003 33.3665 260.827 32.2244 258.424 31.6705L256.344 31.1932C254.904 30.8523 254.282 30.3665 254.29 29.4801C254.282 28.4744 255.373 27.7585 256.822 27.7585C258.407 27.7585 259.14 28.6364 259.438 29.5142L261.748 29.1051ZM274.015 29.1051C273.487 27.0682 271.893 25.7386 269.063 25.7386C266.106 25.7386 264.009 27.2983 264.009 29.6165C264.009 31.4744 265.134 32.7102 267.589 33.2557L269.805 33.7415C271.066 34.0227 271.654 34.5852 271.654 35.4034C271.654 36.4176 270.572 37.2102 268.901 37.2102C267.376 37.2102 266.396 36.554 266.089 35.267L263.626 35.642C264.052 37.9602 265.978 39.2642 268.918 39.2642C272.08 39.2642 274.271 37.5852 274.271 35.2159C274.271 33.3665 273.094 32.2244 270.691 31.6705L268.612 31.1932C267.171 30.8523 266.549 30.3665 266.558 29.4801C266.549 28.4744 267.64 27.7585 269.089 27.7585C270.674 27.7585 271.407 28.6364 271.705 29.5142L274.015 29.1051ZM281.987 39.2642C285.677 39.2642 288.089 36.5625 288.089 32.5142C288.089 28.4403 285.677 25.7386 281.987 25.7386C278.296 25.7386 275.884 28.4403 275.884 32.5142C275.884 36.5625 278.296 39.2642 281.987 39.2642ZM281.995 37.125C279.583 37.125 278.458 35.0199 278.458 32.5057C278.458 30 279.583 27.8693 281.995 27.8693C284.39 27.8693 285.515 30 285.515 32.5057C285.515 35.0199 284.39 37.125 281.995 37.125ZM292.882 31.2273C292.882 29.1392 294.16 27.946 295.933 27.946C297.663 27.946 298.711 29.0795 298.711 30.9801V39H301.26V30.6733C301.26 27.4347 299.478 25.7386 296.802 25.7386C294.833 25.7386 293.546 26.6506 292.941 28.0398H292.779V25.9091H290.333V39H292.882V31.2273ZM313.887 29.1051C313.358 27.0682 311.765 25.7386 308.935 25.7386C305.978 25.7386 303.881 27.2983 303.881 29.6165C303.881 31.4744 305.006 32.7102 307.461 33.2557L309.677 33.7415C310.938 34.0227 311.526 34.5852 311.526 35.4034C311.526 36.4176 310.444 37.2102 308.773 37.2102C307.248 37.2102 306.267 36.554 305.961 35.267L303.498 35.642C303.924 37.9602 305.85 39.2642 308.79 39.2642C311.952 39.2642 314.142 37.5852 314.142 35.2159C314.142 33.3665 312.966 32.2244 310.563 31.6705L308.483 31.1932C307.043 30.8523 306.421 30.3665 306.429 29.4801C306.421 28.4744 307.512 27.7585 308.961 27.7585C310.546 27.7585 311.279 28.6364 311.577 29.5142L313.887 29.1051Z" fill="black"/>
<rect width="107" height="113" fill="#FFC700"/>
<path d="M18.0187 72.1495C18.3364 70.7292 18.7475 69.3649 19.6446 68.1689C20.7285 66.7299 22.1114 65.7208 23.812 65.1227C24.0736 65.0293 24.3727 64.7303 24.4661 64.45C25.9238 60.1891 27.3441 55.9282 28.7831 51.6673C28.8578 51.443 28.9326 51.2374 29.0634 50.9197C30.8201 51.5365 32.5394 52.1345 34.3147 52.7512C32.9692 56.7504 31.661 60.6936 30.3155 64.6929C46.0509 64.6929 61.7116 64.6929 77.4657 64.6929C76.1388 60.7123 74.812 56.7691 73.4664 52.7512C75.2231 52.1345 76.9424 51.5365 78.7365 50.9197C79.3905 52.8446 80.0259 54.6948 80.6427 56.5449C81.5397 59.1986 82.3993 61.8523 83.3151 64.506C83.4085 64.7677 83.6701 65.048 83.9318 65.1414C87.5199 66.4122 89.7625 69.4771 89.7625 73.2895C89.7625 75.5694 89.8746 77.8867 89.613 80.148C89.1458 84.1099 85.5576 87.1187 81.5584 87.1747C80.7361 87.1934 79.9138 87.156 79.1102 87.1934C78.886 87.2121 78.587 87.3803 78.4935 87.5672C77.204 90.4265 75.0362 92.1458 71.9527 92.6877C71.8592 92.7064 71.7845 92.7625 71.691 92.7812C71.0369 92.7812 70.3829 92.7812 69.7288 92.7812C69.6353 92.7438 69.5606 92.6877 69.4671 92.6877C66.3836 92.1458 64.1971 90.4452 62.945 87.5672C62.7581 87.156 62.4965 87.1747 62.1788 87.1747C56.6471 87.1747 51.1154 87.1747 45.5837 87.1747C45.1539 87.1747 44.9296 87.2869 44.7614 87.698C43.9765 89.5294 42.7244 90.9497 40.9303 91.8094C40.0146 92.2392 39.0055 92.4635 38.0337 92.7999C37.3796 92.7999 36.7255 92.7999 36.0714 92.7999C36.0154 92.7625 35.9406 92.7251 35.8846 92.7064C32.7449 92.1645 30.5397 90.4452 29.2503 87.5298C29.1755 87.3616 28.8765 87.2121 28.6896 87.1934C27.8673 87.156 27.0637 87.1934 26.2415 87.1747C23.5691 87.0813 21.4012 85.96 19.738 83.8856C18.8036 82.7083 18.3738 81.3253 18 79.905C18.0187 77.2887 18.0187 74.7284 18.0187 72.1495ZM56.6845 70.3367C56.6845 72.2429 56.6845 74.0744 56.6845 75.9058C54.7969 75.9058 52.9842 75.9058 51.0967 75.9058C51.0967 74.037 51.0967 72.2055 51.0967 70.3928C50.9472 70.3741 50.8911 70.3367 50.8164 70.3367C42.6683 70.3367 34.5203 70.318 26.3536 70.3367C24.8399 70.3367 23.6438 71.5515 23.6251 73.0652C23.5878 74.9527 23.6064 76.8402 23.6251 78.7464C23.6438 80.3349 24.8399 81.5122 26.447 81.5309C27.1385 81.5496 27.8487 81.5122 28.5401 81.5496C28.9699 81.5683 29.1755 81.4188 29.3624 81.0263C30.8761 77.7933 33.4364 75.9992 37.0245 75.9619C40.6313 75.9432 43.229 77.7372 44.7614 81.0077C44.9483 81.4001 45.1165 81.5683 45.565 81.5496C51.0967 81.5309 56.6284 81.5309 62.1788 81.5496C62.6086 81.5496 62.8142 81.4188 63.001 81.0263C64.5335 77.7559 67.1124 75.9619 70.7192 75.9619C74.3074 75.9619 76.8676 77.7559 78.3814 80.989C78.5683 81.3814 78.7365 81.5683 79.185 81.5496C79.8391 81.5122 80.4931 81.5496 81.1472 81.5309C82.96 81.5122 84.1186 80.3536 84.1373 78.5595C84.1373 76.8776 84.1373 75.1956 84.1373 73.5137C84.1373 71.4206 83.0347 70.318 80.9417 70.318C73.1113 70.318 65.2997 70.318 57.4694 70.318C57.2638 70.3367 57.0395 70.3367 56.6845 70.3367ZM39.8838 84.3715C39.9025 82.8391 38.6504 81.5683 37.0993 81.5496C35.5669 81.5309 34.2961 82.783 34.2774 84.3341C34.2587 85.8666 35.5108 87.1561 37.0619 87.1561C38.5943 87.1561 39.8651 85.9039 39.8838 84.3715ZM73.5225 84.3341C73.5225 82.8017 72.2517 81.5496 70.7006 81.5496C69.1681 81.5496 67.916 82.8204 67.916 84.3715C67.916 85.9039 69.1868 87.1561 70.7379 87.1561C72.2704 87.1374 73.5225 85.8666 73.5225 84.3341Z" fill="#0065AE"/>
<path d="M73.5224 40.5852C73.5411 51.387 64.7577 60.2078 53.956 60.2451C43.1355 60.2825 34.2773 51.443 34.2773 40.6226C34.2773 29.8208 43.0795 21.0187 53.8812 21C64.6829 20.9813 73.5037 29.7835 73.5224 40.5852ZM39.8838 40.6226C39.8838 48.3408 46.163 54.62 53.8625 54.6387C61.5994 54.6574 67.916 48.3595 67.916 40.6226C67.916 32.9044 61.6368 26.6252 53.9373 26.6065C46.2004 26.5878 39.8838 32.8857 39.8838 40.6226Z" fill="#0065AE"/>
<path d="M51.134 32.2316C53.0028 32.2316 54.7969 32.2316 56.6657 32.2316C56.6657 34.0817 56.6657 35.8945 56.6657 37.8007C58.5719 37.8007 60.4033 37.8007 62.2722 37.8007C62.2722 39.6882 62.2722 41.5009 62.2722 43.3697C58.5906 43.3697 54.8903 43.3697 51.134 43.3697C51.134 39.6882 51.134 35.9879 51.134 32.2316Z" fill="#0065AE"/>
</svg>
