<svg
  width="226"
  height="248"
  viewBox="0 0 226 248"
  fill="none"
  xmlns="http://www.w3.org/2000/svg"
>
<rect width="226" height="124" fill="#ECECEC" />
<rect y="124" width="226" height="124" fill="#FFC700" />
<path
    d="M39.4517 60.8182H35.6037L29.071 65.0881V68.8722L35.3352 64.7812H35.4886V87H39.4517V60.8182ZM54.7491 87.4347C60.796 87.4347 64.3372 82.5 64.3372 73.9219C64.3372 65.4077 60.7449 60.4602 54.7491 60.4602C48.7406 60.4602 45.1611 65.3949 45.1483 73.9219C45.1483 82.4872 48.6895 87.4219 54.7491 87.4347ZM54.7491 84.0213C51.208 84.0213 49.073 80.4673 49.073 73.9219C49.0858 67.402 51.2207 63.8097 54.7491 63.8097C58.2648 63.8097 60.4125 67.402 60.4125 73.9219C60.4125 80.4673 58.2776 84.0213 54.7491 84.0213ZM76.9577 87H80.908V75.5838H93.9605V87H97.9236V60.8182H93.9605V72.196H80.908V60.8182H76.9577V87ZM110.741 87.3963C116.276 87.3963 119.894 83.3438 119.894 77.2713C119.894 71.1605 116.276 67.108 110.741 67.108C105.205 67.108 101.588 71.1605 101.588 77.2713C101.588 83.3438 105.205 87.3963 110.741 87.3963ZM110.754 84.1875C107.136 84.1875 105.448 81.0298 105.448 77.2585C105.448 73.5 107.136 70.304 110.754 70.304C114.346 70.304 116.034 73.5 116.034 77.2585C116.034 81.0298 114.346 84.1875 110.754 84.1875ZM135.7 78.8565C135.713 82.1932 133.233 83.7784 131.085 83.7784C128.72 83.7784 127.083 82.0653 127.083 79.3935V67.3636H123.261V79.8537C123.261 84.7244 125.933 87.2557 129.704 87.2557C132.657 87.2557 134.664 85.696 135.572 83.5994H135.777V87H139.535V67.3636H135.7V78.8565ZM143.771 87H147.594V75.0085C147.594 72.4389 149.575 70.5852 152.285 70.5852C153.078 70.5852 153.973 70.7259 154.28 70.8153V67.1591C153.896 67.108 153.142 67.0696 152.656 67.0696C150.355 67.0696 148.386 68.3736 147.67 70.483H147.466V67.3636H143.771V87ZM171.402 72.1577C170.609 69.1023 168.219 67.108 163.975 67.108C159.538 67.108 156.394 69.4474 156.394 72.9247C156.394 75.7116 158.081 77.5653 161.763 78.3835L165.087 79.1122C166.979 79.5341 167.861 80.3778 167.861 81.6051C167.861 83.1264 166.237 84.3153 163.732 84.3153C161.443 84.3153 159.973 83.331 159.513 81.4006L155.818 81.9631C156.457 85.4403 159.347 87.3963 163.757 87.3963C168.5 87.3963 171.786 84.8778 171.786 81.3239C171.786 78.5497 170.021 76.8366 166.416 76.0057L163.297 75.2898C161.136 74.7784 160.203 74.0497 160.216 72.7202C160.203 71.2116 161.84 70.1378 164.013 70.1378C166.391 70.1378 167.49 71.4545 167.938 72.7713L171.402 72.1577Z"
    fill="black"
  />
<path
    d="M45.5 214.818H49.7727L49.7955 209.705C59.4091 209 64.9091 203.5 64.9091 196.136C64.9091 187.75 57.4318 184.5 51.5227 183.045L49.8636 182.614L49.9091 168.023C54.1591 168.591 57.0682 170.955 57.5 174.682H64.2727C64.0909 167.75 58.3636 162.568 49.9318 161.886L49.9545 156.636H45.6818L45.6591 161.932C37.5 162.75 31.5227 167.841 31.5227 175.182C31.5227 181.659 36.1591 185.455 43.6364 187.477L45.5909 188L45.5455 203.477C41.1136 202.932 37.6818 200.523 37.3182 196.136H30.2727C30.7045 203.977 36.3636 209.023 45.5227 209.705L45.5 214.818ZM49.8182 203.477L49.8636 189.182C54.4773 190.455 57.9545 192.136 57.9545 196.068C57.9545 200.045 54.6364 202.841 49.8182 203.477ZM45.6136 181.477C42.2273 180.477 38.5 178.682 38.5227 174.773C38.5227 171.364 41.2273 168.705 45.6364 168.045L45.6136 181.477ZM87.2693 209.636C96.7693 209.636 103.747 203.955 103.724 196.227C103.747 190.341 100.178 186.114 93.9966 185.159V184.795C98.8602 183.545 102.019 179.727 101.997 174.5C102.019 167.659 96.4057 161.818 87.4511 161.818C78.9057 161.818 72.042 166.977 71.8148 174.545H78.6102C78.7693 170.273 82.792 167.682 87.3602 167.682C92.1102 167.682 95.2239 170.568 95.2011 174.864C95.2239 179.364 91.6102 182.318 86.4511 182.318H82.5193V188.045H86.4511C92.9057 188.045 96.633 191.318 96.633 196C96.633 200.523 92.7011 203.591 87.2239 203.591C82.1784 203.591 78.2466 201 77.9739 196.864H70.8375C71.133 204.455 77.8602 209.636 87.2693 209.636ZM126.919 209.773C137.669 209.773 143.965 201 143.965 185.75C143.965 170.614 137.578 161.818 126.919 161.818C116.238 161.818 109.874 170.591 109.851 185.75C109.851 200.977 116.147 209.75 126.919 209.773ZM126.919 203.705C120.624 203.705 116.828 197.386 116.828 185.75C116.851 174.159 120.647 167.773 126.919 167.773C133.169 167.773 136.988 174.159 136.988 185.75C136.988 197.386 133.192 203.705 126.919 203.705ZM166.632 209.773C177.382 209.773 183.677 201 183.677 185.75C183.677 170.614 177.291 161.818 166.632 161.818C155.95 161.818 149.586 170.591 149.564 185.75C149.564 200.977 155.859 209.75 166.632 209.773ZM166.632 203.705C160.336 203.705 156.541 197.386 156.541 185.75C156.564 174.159 160.359 167.773 166.632 167.773C172.882 167.773 176.7 174.159 176.7 185.75C176.7 197.386 172.905 203.705 166.632 203.705Z"
    fill="black"
  />
<path
    d="M36.4261 35C36.0483 32.9119 34.3778 31.679 32.3295 31.679C29.7244 31.679 27.8352 33.6875 27.8352 36.9091C27.8352 40.1307 29.7244 42.1392 32.3295 42.1392C34.3778 42.1392 36.0483 40.9062 36.4261 38.8182H35.1932C34.8949 40.2301 33.6818 40.9858 32.3295 40.9858C30.4801 40.9858 29.0284 39.554 29.0284 36.9091C29.0284 34.2642 30.4801 32.8324 32.3295 32.8324C33.6818 32.8324 34.8949 33.5881 35.1932 35H36.4261ZM38.9427 31.8182H37.7694V42H38.9427V31.8182ZM42.8488 42.179C44.1812 42.179 44.8772 41.4631 45.1159 40.9659H45.1755V42H46.3488V36.9688C46.3488 34.5426 44.4994 34.2642 43.525 34.2642C42.3716 34.2642 41.0591 34.6619 40.4625 36.054L41.5761 36.4517C41.8346 35.8949 42.4461 35.2983 43.5647 35.2983C44.6436 35.2983 45.1755 35.87 45.1755 36.8494V36.8892C45.1755 37.456 44.5988 37.4062 43.2068 37.5852C41.7899 37.7692 40.2437 38.0824 40.2437 39.8324C40.2437 41.3239 41.3971 42.179 42.8488 42.179ZM43.0278 41.125C42.0932 41.125 41.417 40.7074 41.417 39.892C41.417 38.9972 42.2324 38.7188 43.1471 38.5994C43.6443 38.5398 44.9767 38.4006 45.1755 38.1619V39.2358C45.1755 40.1903 44.4199 41.125 43.0278 41.125ZM53.4094 36.0739C53.0415 34.9901 52.2163 34.2642 50.7049 34.2642C49.0941 34.2642 47.9009 35.179 47.9009 36.4716C47.9009 37.5256 48.5273 38.2315 49.9293 38.5597L51.2021 38.858C51.9726 39.0369 52.3356 39.4048 52.3356 39.9318C52.3356 40.5881 51.6396 41.125 50.5458 41.125C49.5863 41.125 48.9847 40.7124 48.7759 39.892L47.6623 40.1705C47.9357 41.468 49.0046 42.1591 50.5657 42.1591C52.3405 42.1591 53.5486 41.1896 53.5486 39.8722C53.5486 38.8082 52.8825 38.1371 51.5202 37.804L50.3867 37.5256C49.4819 37.3018 49.0742 36.9986 49.0742 36.4119C49.0742 35.7557 49.7702 35.2784 50.7049 35.2784C51.729 35.2784 52.1516 35.8452 52.3555 36.3722L53.4094 36.0739ZM60.2339 36.0739C59.866 34.9901 59.0407 34.2642 57.5293 34.2642C55.9186 34.2642 54.7254 35.179 54.7254 36.4716C54.7254 37.5256 55.3518 38.2315 56.7538 38.5597L58.0265 38.858C58.7971 39.0369 59.16 39.4048 59.16 39.9318C59.16 40.5881 58.464 41.125 57.3703 41.125C56.4107 41.125 55.8092 40.7124 55.6004 39.892L54.4867 40.1705C54.7602 41.468 55.8291 42.1591 57.3901 42.1591C59.165 42.1591 60.3731 41.1896 60.3731 39.8722C60.3731 38.8082 59.7069 38.1371 58.3447 37.804L57.2112 37.5256C56.3063 37.3018 55.8987 36.9986 55.8987 36.4119C55.8987 35.7557 56.5947 35.2784 57.5293 35.2784C58.5535 35.2784 58.9761 35.8452 59.1799 36.3722L60.2339 36.0739ZM68.3979 42C71.5002 42 73.2502 40.071 73.2502 36.8892C73.2502 33.7273 71.5002 31.8182 68.5371 31.8182H65.2558V42H68.3979ZM66.4888 40.9062V32.9119H68.4576C70.8439 32.9119 72.057 34.4233 72.057 36.8892C72.057 39.375 70.8439 40.9062 68.3183 40.9062H66.4888ZM79.4818 38.8778C79.4818 40.3097 78.388 40.9659 77.513 40.9659C76.5386 40.9659 75.8425 40.25 75.8425 39.1364V34.3636H74.6693V39.2159C74.6693 41.1648 75.7033 42.0994 77.1352 42.0994C78.2886 42.0994 79.0443 41.483 79.4022 40.7074H79.4818V42H80.655V34.3636H79.4818V38.8778ZM82.314 42H83.4873V37.1676C83.4873 36.1335 84.3027 35.3778 85.4163 35.3778C85.7295 35.3778 86.0527 35.4375 86.1322 35.4574V34.2642C85.998 34.2543 85.6897 34.2443 85.5157 34.2443C84.601 34.2443 83.8055 34.7614 83.5271 35.517H83.4475V34.3636H82.314V42ZM89.2802 42.179C90.6126 42.179 91.3086 41.4631 91.5472 40.9659H91.6069V42H92.7802V36.9688C92.7802 34.5426 90.9307 34.2642 89.9563 34.2642C88.8029 34.2642 87.4904 34.6619 86.8938 36.054L88.0074 36.4517C88.266 35.8949 88.8775 35.2983 89.9961 35.2983C91.0749 35.2983 91.6069 35.87 91.6069 36.8494V36.8892C91.6069 37.456 91.0302 37.4062 89.6381 37.5852C88.2212 37.7692 86.675 38.0824 86.675 39.8324C86.675 41.3239 87.8285 42.179 89.2802 42.179ZM89.4591 41.125C88.5245 41.125 87.8483 40.7074 87.8483 39.892C87.8483 38.9972 88.6637 38.7188 89.5785 38.5994C90.0756 38.5398 91.408 38.4006 91.6069 38.1619V39.2358C91.6069 40.1903 90.8512 41.125 89.4591 41.125ZM97.7527 34.3636H96.122V32.5341H94.9487V34.3636H93.7953V35.358H94.9487V40.1307C94.9487 41.4631 96.0226 42.0994 97.0169 42.0994C97.4544 42.0994 97.7328 42.0199 97.8919 41.9602L97.6533 40.9062C97.5538 40.9261 97.3947 40.9659 97.1362 40.9659C96.6192 40.9659 96.122 40.8068 96.122 39.8125V35.358H97.7527V34.3636ZM99.0276 42H100.201V34.3636H99.0276V42ZM99.6242 33.0909C100.082 33.0909 100.459 32.733 100.459 32.2955C100.459 31.858 100.082 31.5 99.6242 31.5C99.1668 31.5 98.789 31.858 98.789 32.2955C98.789 32.733 99.1668 33.0909 99.6242 33.0909ZM104.962 42.1591C107.03 42.1591 108.422 40.5881 108.422 38.2216C108.422 35.8352 107.03 34.2642 104.962 34.2642C102.894 34.2642 101.502 35.8352 101.502 38.2216C101.502 40.5881 102.894 42.1591 104.962 42.1591ZM104.962 41.1051C103.391 41.1051 102.675 39.7528 102.675 38.2216C102.675 36.6903 103.391 35.3182 104.962 35.3182C106.533 35.3182 107.249 36.6903 107.249 38.2216C107.249 39.7528 106.533 41.1051 104.962 41.1051ZM110.897 37.4062C110.897 36.0739 111.722 35.3182 112.846 35.3182C113.934 35.3182 114.596 36.0291 114.596 37.2273V42H115.769V37.1477C115.769 35.1989 114.73 34.2642 113.184 34.2642C112.03 34.2642 111.314 34.7812 110.956 35.5568H110.857V34.3636H109.723V42H110.897V37.4062Z"
    fill="black"
  />
</svg>
