<svg
  width="226"
  height="248"
  viewBox="0 0 226 248"
  fill="none"
  xmlns="http://www.w3.org/2000/svg"
>
<rect width="226" height="124" fill="#ECECEC" />
<rect y="124" width="226" height="124" fill="#FFC700" />
<path
    d="M29.5185 87H46.7514V83.6122H34.9645V83.4205L40.1676 77.9744C44.9616 73.1293 46.3295 70.8153 46.3295 67.8878C46.3295 63.6818 42.9034 60.4602 37.9688 60.4602C33.0724 60.4602 29.4929 63.6307 29.4929 68.4119H33.2642C33.2514 65.5994 35.0668 63.7585 37.892 63.7585C40.5511 63.7585 42.571 65.3949 42.571 68.0028C42.571 70.3168 41.1903 71.9787 38.3778 74.9574L29.5185 84.1364V87ZM59.6819 87H63.6322V75.5838H76.6847V87H80.6478V60.8182H76.6847V72.196H63.6322V60.8182H59.6819V87ZM93.4651 87.3963C99.0006 87.3963 102.619 83.3438 102.619 77.2713C102.619 71.1605 99.0006 67.108 93.4651 67.108C87.9296 67.108 84.3117 71.1605 84.3117 77.2713C84.3117 83.3438 87.9296 87.3963 93.4651 87.3963ZM93.4779 84.1875C89.86 84.1875 88.1725 81.0298 88.1725 77.2585C88.1725 73.5 89.86 70.304 93.4779 70.304C97.0702 70.304 98.7577 73.5 98.7577 77.2585C98.7577 81.0298 97.0702 84.1875 93.4779 84.1875ZM118.424 78.8565C118.437 82.1932 115.957 83.7784 113.809 83.7784C111.444 83.7784 109.808 82.0653 109.808 79.3935V67.3636H105.985V79.8537C105.985 84.7244 108.657 87.2557 112.428 87.2557C115.382 87.2557 117.389 85.696 118.296 83.5994H118.501V87H122.259V67.3636H118.424V78.8565ZM126.495 87H130.318V75.0085C130.318 72.4389 132.299 70.5852 135.01 70.5852C135.802 70.5852 136.697 70.7259 137.004 70.8153V67.1591C136.62 67.108 135.866 67.0696 135.38 67.0696C133.079 67.0696 131.11 68.3736 130.395 70.483H130.19V67.3636H126.495V87Z"
    fill="black"
  />
<path
    d="M45.5 214.818H49.7727L49.7955 209.705C59.4091 209 64.9091 203.5 64.9091 196.136C64.9091 187.75 57.4318 184.5 51.5227 183.045L49.8636 182.614L49.9091 168.023C54.1591 168.591 57.0682 170.955 57.5 174.682H64.2727C64.0909 167.75 58.3636 162.568 49.9318 161.886L49.9545 156.636H45.6818L45.6591 161.932C37.5 162.75 31.5227 167.841 31.5227 175.182C31.5227 181.659 36.1591 185.455 43.6364 187.477L45.5909 188L45.5455 203.477C41.1136 202.932 37.6818 200.523 37.3182 196.136H30.2727C30.7045 203.977 36.3636 209.023 45.5227 209.705L45.5 214.818ZM49.8182 203.477L49.8636 189.182C54.4773 190.455 57.9545 192.136 57.9545 196.068C57.9545 200.045 54.6364 202.841 49.8182 203.477ZM45.6136 181.477C42.2273 180.477 38.5 178.682 38.5227 174.773C38.5227 171.364 41.2273 168.705 45.6364 168.045L45.6136 181.477ZM86.792 209.636C96.4739 209.636 103.315 204.136 103.36 196.591C103.315 190.727 99.2011 185.795 93.9966 184.864V184.591C98.5193 183.5 101.588 179.25 101.633 174.227C101.588 167.114 95.3148 161.818 86.792 161.818C78.1784 161.818 71.9057 167.114 71.9511 174.227C71.9057 179.227 74.9739 183.5 79.5875 184.591V184.864C74.292 185.795 70.1784 190.727 70.2239 196.591C70.1784 204.136 77.0193 209.636 86.792 209.636ZM86.792 203.886C80.9739 203.886 77.292 200.795 77.3375 196.136C77.292 191.295 81.292 187.841 86.792 187.841C92.2011 187.841 96.2011 191.295 96.2466 196.136C96.2011 200.795 92.542 203.886 86.792 203.886ZM86.792 182.227C82.0875 182.227 78.7466 179.25 78.792 174.818C78.7466 170.455 81.9739 167.568 86.792 167.568C91.5193 167.568 94.7466 170.455 94.792 174.818C94.7466 179.25 91.4284 182.227 86.792 182.227ZM126.107 209.773C136.857 209.773 143.152 201 143.152 185.75C143.152 170.614 136.766 161.818 126.107 161.818C115.425 161.818 109.061 170.591 109.039 185.75C109.039 200.977 115.334 209.75 126.107 209.773ZM126.107 203.705C119.811 203.705 116.016 197.386 116.016 185.75C116.039 174.159 119.834 167.773 126.107 167.773C132.357 167.773 136.175 174.159 136.175 185.75C136.175 197.386 132.38 203.705 126.107 203.705Z"
    fill="black"
  />
<path
    d="M36.4261 35C36.0483 32.9119 34.3778 31.679 32.3295 31.679C29.7244 31.679 27.8352 33.6875 27.8352 36.9091C27.8352 40.1307 29.7244 42.1392 32.3295 42.1392C34.3778 42.1392 36.0483 40.9062 36.4261 38.8182H35.1932C34.8949 40.2301 33.6818 40.9858 32.3295 40.9858C30.4801 40.9858 29.0284 39.554 29.0284 36.9091C29.0284 34.2642 30.4801 32.8324 32.3295 32.8324C33.6818 32.8324 34.8949 33.5881 35.1932 35H36.4261ZM38.9427 31.8182H37.7694V42H38.9427V31.8182ZM42.8488 42.179C44.1812 42.179 44.8772 41.4631 45.1159 40.9659H45.1755V42H46.3488V36.9688C46.3488 34.5426 44.4994 34.2642 43.525 34.2642C42.3716 34.2642 41.0591 34.6619 40.4625 36.054L41.5761 36.4517C41.8346 35.8949 42.4461 35.2983 43.5647 35.2983C44.6436 35.2983 45.1755 35.87 45.1755 36.8494V36.8892C45.1755 37.456 44.5988 37.4062 43.2068 37.5852C41.7899 37.7692 40.2437 38.0824 40.2437 39.8324C40.2437 41.3239 41.3971 42.179 42.8488 42.179ZM43.0278 41.125C42.0932 41.125 41.417 40.7074 41.417 39.892C41.417 38.9972 42.2324 38.7188 43.1471 38.5994C43.6443 38.5398 44.9767 38.4006 45.1755 38.1619V39.2358C45.1755 40.1903 44.4199 41.125 43.0278 41.125ZM53.4094 36.0739C53.0415 34.9901 52.2163 34.2642 50.7049 34.2642C49.0941 34.2642 47.9009 35.179 47.9009 36.4716C47.9009 37.5256 48.5273 38.2315 49.9293 38.5597L51.2021 38.858C51.9726 39.0369 52.3356 39.4048 52.3356 39.9318C52.3356 40.5881 51.6396 41.125 50.5458 41.125C49.5863 41.125 48.9847 40.7124 48.7759 39.892L47.6623 40.1705C47.9357 41.468 49.0046 42.1591 50.5657 42.1591C52.3405 42.1591 53.5486 41.1896 53.5486 39.8722C53.5486 38.8082 52.8825 38.1371 51.5202 37.804L50.3867 37.5256C49.4819 37.3018 49.0742 36.9986 49.0742 36.4119C49.0742 35.7557 49.7702 35.2784 50.7049 35.2784C51.729 35.2784 52.1516 35.8452 52.3555 36.3722L53.4094 36.0739ZM60.2339 36.0739C59.866 34.9901 59.0407 34.2642 57.5293 34.2642C55.9186 34.2642 54.7254 35.179 54.7254 36.4716C54.7254 37.5256 55.3518 38.2315 56.7538 38.5597L58.0265 38.858C58.7971 39.0369 59.16 39.4048 59.16 39.9318C59.16 40.5881 58.464 41.125 57.3703 41.125C56.4107 41.125 55.8092 40.7124 55.6004 39.892L54.4867 40.1705C54.7602 41.468 55.8291 42.1591 57.3901 42.1591C59.165 42.1591 60.3731 41.1896 60.3731 39.8722C60.3731 38.8082 59.7069 38.1371 58.3447 37.804L57.2112 37.5256C56.3063 37.3018 55.8987 36.9986 55.8987 36.4119C55.8987 35.7557 56.5947 35.2784 57.5293 35.2784C58.5535 35.2784 58.9761 35.8452 59.1799 36.3722L60.2339 36.0739ZM68.3979 42C71.5002 42 73.2502 40.071 73.2502 36.8892C73.2502 33.7273 71.5002 31.8182 68.5371 31.8182H65.2558V42H68.3979ZM66.4888 40.9062V32.9119H68.4576C70.8439 32.9119 72.057 34.4233 72.057 36.8892C72.057 39.375 70.8439 40.9062 68.3183 40.9062H66.4888ZM79.4818 38.8778C79.4818 40.3097 78.388 40.9659 77.513 40.9659C76.5386 40.9659 75.8425 40.25 75.8425 39.1364V34.3636H74.6693V39.2159C74.6693 41.1648 75.7033 42.0994 77.1352 42.0994C78.2886 42.0994 79.0443 41.483 79.4022 40.7074H79.4818V42H80.655V34.3636H79.4818V38.8778ZM82.314 42H83.4873V37.1676C83.4873 36.1335 84.3027 35.3778 85.4163 35.3778C85.7295 35.3778 86.0527 35.4375 86.1322 35.4574V34.2642C85.998 34.2543 85.6897 34.2443 85.5157 34.2443C84.601 34.2443 83.8055 34.7614 83.5271 35.517H83.4475V34.3636H82.314V42ZM89.2802 42.179C90.6126 42.179 91.3086 41.4631 91.5472 40.9659H91.6069V42H92.7802V36.9688C92.7802 34.5426 90.9307 34.2642 89.9563 34.2642C88.8029 34.2642 87.4904 34.6619 86.8938 36.054L88.0074 36.4517C88.266 35.8949 88.8775 35.2983 89.9961 35.2983C91.0749 35.2983 91.6069 35.87 91.6069 36.8494V36.8892C91.6069 37.456 91.0302 37.4062 89.6381 37.5852C88.2212 37.7692 86.675 38.0824 86.675 39.8324C86.675 41.3239 87.8285 42.179 89.2802 42.179ZM89.4591 41.125C88.5245 41.125 87.8483 40.7074 87.8483 39.892C87.8483 38.9972 88.6637 38.7188 89.5785 38.5994C90.0756 38.5398 91.408 38.4006 91.6069 38.1619V39.2358C91.6069 40.1903 90.8512 41.125 89.4591 41.125ZM97.7527 34.3636H96.122V32.5341H94.9487V34.3636H93.7953V35.358H94.9487V40.1307C94.9487 41.4631 96.0226 42.0994 97.0169 42.0994C97.4544 42.0994 97.7328 42.0199 97.8919 41.9602L97.6533 40.9062C97.5538 40.9261 97.3947 40.9659 97.1362 40.9659C96.6192 40.9659 96.122 40.8068 96.122 39.8125V35.358H97.7527V34.3636ZM99.0276 42H100.201V34.3636H99.0276V42ZM99.6242 33.0909C100.082 33.0909 100.459 32.733 100.459 32.2955C100.459 31.858 100.082 31.5 99.6242 31.5C99.1668 31.5 98.789 31.858 98.789 32.2955C98.789 32.733 99.1668 33.0909 99.6242 33.0909ZM104.962 42.1591C107.03 42.1591 108.422 40.5881 108.422 38.2216C108.422 35.8352 107.03 34.2642 104.962 34.2642C102.894 34.2642 101.502 35.8352 101.502 38.2216C101.502 40.5881 102.894 42.1591 104.962 42.1591ZM104.962 41.1051C103.391 41.1051 102.675 39.7528 102.675 38.2216C102.675 36.6903 103.391 35.3182 104.962 35.3182C106.533 35.3182 107.249 36.6903 107.249 38.2216C107.249 39.7528 106.533 41.1051 104.962 41.1051ZM110.897 37.4062C110.897 36.0739 111.722 35.3182 112.846 35.3182C113.934 35.3182 114.596 36.0291 114.596 37.2273V42H115.769V37.1477C115.769 35.1989 114.73 34.2642 113.184 34.2642C112.03 34.2642 111.314 34.7812 110.956 35.5568H110.857V34.3636H109.723V42H110.897V37.4062Z"
    fill="black"
  />
</svg>
